<?xml version="1.0" encoding="UTF-8"?>
<svg xmlns="http://www.w3.org/2000/svg" xmlns:xlink="http://www.w3.org/1999/xlink" width="px" height="px" viewBox="0 0 82 31" version="1.1">
<g id="surface1">
<path style=" stroke:none;fill-rule:nonzero;fill:rgb(100%,100%,100%);fill-opacity:1;" d="M 10.105469 6.914062 C 9.167969 6.917969 8.414062 7.683594 8.414062 8.628906 C 8.410156 9.574219 9.167969 10.34375 10.105469 10.34375 L 10.105469 13.773438 L 6.765625 13.773438 L 6.765625 12.058594 C 6.765625 11.113281 6.011719 10.347656 5.074219 10.34375 C 4.140625 10.347656 3.382812 11.113281 3.382812 12.058594 L 3.382812 13.773438 L 1.691406 13.773438 C 0.757812 13.777344 0 14.542969 0 15.488281 C 0 16.433594 0.757812 17.203125 1.691406 17.203125 L 3.382812 17.203125 L 3.382812 18.921875 C 3.382812 19.867188 4.140625 20.632812 5.074219 20.636719 C 6.011719 20.632812 6.765625 19.863281 6.765625 18.921875 L 6.765625 17.203125 L 10.105469 17.203125 L 10.105469 20.636719 C 9.1875 20.664062 8.457031 21.421875 8.457031 22.347656 C 8.457031 23.277344 9.1875 24.039062 10.105469 24.0625 L 10.105469 30.972656 L 13.613281 30.972656 L 13.613281 0 L 10.105469 0 Z M 20.609375 3.359375 L 22.480469 6.699219 L 23.410156 6.699219 L 25.300781 3.359375 L 25.300781 8.734375 L 26.859375 8.734375 L 26.859375 0.738281 L 25.042969 0.738281 L 22.96875 4.53125 L 20.914062 0.738281 L 19.058594 0.738281 L 19.058594 8.734375 L 20.609375 8.734375 Z M 30.308594 8.914062 C 30.65625 8.914062 31.015625 8.824219 31.390625 8.644531 C 31.746094 8.476562 32.070312 8.242188 32.339844 7.953125 L 32.339844 8.734375 L 33.808594 8.734375 L 33.808594 2.675781 L 32.339844 2.675781 L 32.339844 6.722656 C 31.726562 7.304688 31.203125 7.597656 30.765625 7.597656 C 30.546875 7.597656 30.386719 7.554688 30.269531 7.46875 C 30.160156 7.382812 30.078125 7.226562 30.027344 6.996094 C 29.980469 6.769531 29.957031 6.441406 29.957031 6.015625 L 29.957031 2.675781 L 28.484375 2.675781 L 28.484375 6.722656 C 28.484375 7.425781 28.621094 7.964844 28.890625 8.34375 C 29.160156 8.726562 29.632812 8.914062 30.308594 8.914062 Z M 37.535156 7.695312 C 37.269531 7.695312 37.019531 7.652344 36.785156 7.570312 C 36.554688 7.488281 36.347656 7.324219 36.167969 7.074219 L 35.074219 7.855469 C 35.527344 8.5625 36.378906 8.914062 37.625 8.914062 C 38.097656 8.914062 38.515625 8.839844 38.882812 8.691406 C 39.25 8.539062 39.535156 8.324219 39.734375 8.035156 C 39.933594 7.75 40.035156 7.40625 40.035156 7.007812 C 40.035156 6.644531 39.957031 6.339844 39.808594 6.09375 C 39.65625 5.847656 39.4375 5.636719 39.144531 5.46875 C 38.855469 5.300781 38.371094 5.132812 37.691406 4.964844 C 37.277344 4.859375 36.996094 4.761719 36.859375 4.667969 C 36.71875 4.574219 36.648438 4.445312 36.644531 4.289062 C 36.644531 4.121094 36.726562 3.988281 36.882812 3.882812 C 37.035156 3.773438 37.265625 3.722656 37.570312 3.722656 C 38.164062 3.722656 38.589844 3.925781 38.851562 4.335938 L 39.953125 3.542969 C 39.734375 3.195312 39.417969 2.933594 39.011719 2.761719 C 38.601562 2.585938 38.128906 2.5 37.59375 2.5 C 36.808594 2.5 36.214844 2.675781 35.808594 3.019531 C 35.40625 3.367188 35.203125 3.808594 35.203125 4.34375 C 35.203125 4.878906 35.363281 5.28125 35.6875 5.605469 C 36.007812 5.925781 36.566406 6.179688 37.363281 6.355469 C 37.785156 6.460938 38.09375 6.5625 38.289062 6.660156 C 38.488281 6.757812 38.585938 6.894531 38.585938 7.078125 C 38.585938 7.488281 38.238281 7.695312 37.539062 7.695312 Z M 43.941406 8.914062 C 44.601562 8.914062 45.125 8.828125 45.507812 8.652344 C 45.882812 8.484375 46.207031 8.210938 46.4375 7.867188 L 45.34375 7.074219 C 45.179688 7.28125 44.988281 7.421875 44.769531 7.496094 C 44.550781 7.566406 44.296875 7.605469 44.007812 7.605469 C 43.511719 7.605469 43.148438 7.488281 42.914062 7.253906 C 42.683594 7.015625 42.550781 6.632812 42.527344 6.089844 L 46.496094 6.089844 L 46.496094 5.355469 C 46.496094 4.425781 46.273438 3.714844 45.828125 3.226562 C 45.382812 2.742188 44.730469 2.496094 43.882812 2.496094 C 41.964844 2.5 41.007812 3.582031 41.007812 5.75 C 41.007812 6.808594 41.253906 7.597656 41.738281 8.121094 C 42.21875 8.648438 42.953125 8.910156 43.941406 8.910156 Z M 42.804688 4.222656 C 42.902344 4.042969 43.039062 3.910156 43.207031 3.816406 C 43.371094 3.726562 43.585938 3.683594 43.847656 3.683594 C 44.644531 3.683594 45.039062 4.144531 45.039062 5.0625 L 42.566406 5.0625 C 42.625 4.683594 42.703125 4.402344 42.804688 4.222656 M 50.398438 8.914062 C 51.386719 8.914062 52.113281 8.632812 52.570312 8.074219 C 53.03125 7.511719 53.261719 6.730469 53.261719 5.71875 C 53.261719 4.707031 53.03125 3.898438 52.570312 3.339844 C 52.113281 2.78125 51.386719 2.5 50.398438 2.5 C 49.410156 2.5 48.679688 2.78125 48.21875 3.339844 C 47.757812 3.898438 47.527344 4.691406 47.527344 5.71875 C 47.527344 7.847656 48.484375 8.914062 50.398438 8.914062 M 49.359375 4.273438 C 49.574219 3.957031 49.921875 3.800781 50.398438 3.800781 C 50.875 3.800781 51.226562 3.953125 51.429688 4.257812 C 51.636719 4.566406 51.738281 5.054688 51.738281 5.71875 C 51.738281 6.382812 51.636719 6.851562 51.425781 7.15625 C 51.21875 7.457031 50.875 7.609375 50.398438 7.609375 C 49.925781 7.609375 49.570312 7.457031 49.359375 7.148438 C 49.148438 6.84375 49.042969 6.363281 49.042969 5.71875 C 49.042969 5.070312 49.148438 4.585938 49.363281 4.269531 Z M 59.4375 8.914062 C 59.824219 8.910156 60.167969 8.84375 60.472656 8.707031 C 60.789062 8.5625 61.078125 8.371094 61.339844 8.144531 L 61.339844 8.734375 L 62.691406 8.734375 L 62.691406 0.132812 L 61.222656 0.132812 L 61.222656 3.125 C 61.027344 2.945312 60.78125 2.792969 60.488281 2.675781 C 60.210938 2.5625 59.917969 2.503906 59.621094 2.5 C 58.828125 2.5 58.210938 2.785156 57.769531 3.355469 C 57.332031 3.925781 57.113281 4.722656 57.113281 5.75 C 57.113281 6.777344 57.3125 7.535156 57.710938 8.085938 C 58.113281 8.636719 58.6875 8.910156 59.4375 8.910156 Z M 58.988281 4.328125 C 59.230469 3.984375 59.546875 3.8125 59.941406 3.8125 C 60.179688 3.8125 60.414062 3.867188 60.644531 3.980469 C 60.875 4.089844 61.066406 4.214844 61.222656 4.355469 L 61.222656 7.007812 C 61.03125 7.183594 60.8125 7.324219 60.578125 7.429688 C 60.34375 7.539062 60.089844 7.59375 59.832031 7.597656 C 59.421875 7.597656 59.121094 7.433594 58.925781 7.101562 C 58.730469 6.769531 58.632812 6.3125 58.628906 5.730469 C 58.628906 5.148438 58.75 4.675781 58.992188 4.332031 Z M 69.476562 7.871094 L 68.378906 7.074219 C 68.21875 7.285156 68.027344 7.425781 67.808594 7.496094 C 67.5625 7.574219 67.304688 7.613281 67.046875 7.609375 C 66.550781 7.609375 66.183594 7.488281 65.953125 7.253906 C 65.71875 7.019531 65.589844 6.632812 65.5625 6.09375 L 69.535156 6.09375 L 69.535156 5.359375 C 69.535156 4.429688 69.3125 3.71875 68.867188 3.230469 C 68.417969 2.742188 67.769531 2.5 66.917969 2.5 C 65.003906 2.5 64.046875 3.585938 64.046875 5.75 C 64.046875 6.8125 64.289062 7.601562 64.777344 8.125 C 65.257812 8.648438 65.992188 8.910156 66.976562 8.910156 C 67.636719 8.910156 68.160156 8.824219 68.542969 8.648438 C 68.917969 8.480469 69.242188 8.210938 69.472656 7.867188 Z M 65.84375 4.222656 C 65.933594 4.050781 66.074219 3.910156 66.242188 3.820312 C 66.410156 3.726562 66.625 3.683594 66.886719 3.683594 C 67.679688 3.683594 68.078125 4.144531 68.078125 5.0625 L 65.605469 5.0625 C 65.664062 4.683594 65.742188 4.402344 65.84375 4.222656 M 72.332031 0.132812 L 70.863281 0.132812 L 70.863281 8.734375 L 72.332031 8.734375 Z M 75.460938 0.132812 L 73.992188 0.132812 L 73.992188 8.734375 L 75.460938 8.734375 Z M 81.382812 2.996094 C 80.96875 2.667969 80.296875 2.503906 79.367188 2.5 C 78.757812 2.5 78.242188 2.59375 77.8125 2.773438 C 77.382812 2.957031 77.066406 3.222656 76.863281 3.5625 L 78.011719 4.308594 C 78.121094 4.109375 78.292969 3.953125 78.519531 3.847656 C 78.75 3.738281 79.023438 3.683594 79.34375 3.683594 C 79.734375 3.683594 80.027344 3.746094 80.230469 3.871094 C 80.429688 4 80.53125 4.230469 80.53125 4.570312 L 80.53125 4.839844 L 79.273438 4.960938 C 78.632812 5.027344 78.144531 5.140625 77.804688 5.300781 C 77.460938 5.460938 77.207031 5.683594 77.035156 5.960938 C 76.859375 6.246094 76.773438 6.597656 76.773438 7.03125 C 76.773438 7.582031 76.945312 8.035156 77.28125 8.386719 C 77.621094 8.738281 78.121094 8.914062 78.78125 8.914062 C 79.441406 8.914062 80.070312 8.644531 80.652344 8.105469 L 80.652344 8.734375 L 82.003906 8.734375 L 82.003906 4.613281 C 82.003906 3.863281 81.796875 3.324219 81.382812 2.992188 Z M 80.53125 7.074219 C 80.285156 7.285156 80.03125 7.445312 79.773438 7.558594 C 79.515625 7.671875 79.300781 7.730469 79.121094 7.730469 C 78.871094 7.730469 78.671875 7.679688 78.519531 7.578125 C 78.367188 7.472656 78.289062 7.285156 78.289062 7.007812 C 78.289062 6.691406 78.40625 6.453125 78.640625 6.296875 C 78.875 6.136719 79.253906 6.035156 79.78125 5.988281 L 80.527344 5.921875 L 80.527344 7.074219 Z M 23.496094 18.230469 C 23.238281 18.410156 22.871094 18.5 22.40625 18.503906 C 21.710938 18.503906 21.203125 18.277344 20.886719 17.828125 C 20.570312 17.375 20.410156 16.695312 20.410156 15.78125 C 20.410156 14.804688 20.578125 14.105469 20.917969 13.6875 C 21.253906 13.269531 21.75 13.0625 22.394531 13.0625 C 22.664062 13.0625 22.894531 13.089844 23.089844 13.152344 C 23.28125 13.214844 23.457031 13.304688 23.609375 13.429688 C 23.761719 13.554688 23.929688 13.753906 24.109375 14.03125 L 25.359375 13.046875 C 25.105469 12.621094 24.734375 12.273438 24.246094 12.011719 C 23.761719 11.746094 23.132812 11.617188 22.359375 11.617188 C 21.195312 11.617188 20.296875 11.957031 19.679688 12.632812 C 19.0625 13.3125 18.753906 14.359375 18.753906 15.78125 C 18.753906 18.558594 19.972656 19.949219 22.417969 19.949219 C 23.136719 19.949219 23.742188 19.828125 24.234375 19.585938 C 24.722656 19.34375 25.140625 18.96875 25.476562 18.457031 L 24.207031 17.507812 C 23.992188 17.808594 23.757812 18.050781 23.496094 18.234375 Z M 30.890625 14.039062 C 30.476562 13.710938 29.804688 13.546875 28.875 13.546875 C 28.265625 13.546875 27.75 13.636719 27.320312 13.820312 C 26.890625 14 26.574219 14.265625 26.375 14.605469 L 27.519531 15.351562 C 27.628906 15.152344 27.800781 14.996094 28.03125 14.890625 C 28.257812 14.78125 28.535156 14.730469 28.851562 14.730469 C 29.242188 14.726562 29.535156 14.789062 29.738281 14.917969 C 30.039062 15.105469 30.039062 15.273438 30.039062 15.613281 L 30.039062 15.882812 L 28.78125 16.007812 C 28.140625 16.070312 27.652344 16.183594 27.3125 16.34375 C 26.972656 16.503906 26.714844 16.726562 26.542969 17.003906 C 26.367188 17.289062 26.28125 17.640625 26.28125 18.074219 C 26.28125 18.625 26.453125 19.078125 26.789062 19.429688 C 27.128906 19.78125 27.628906 19.957031 28.289062 19.957031 C 28.949219 19.957031 29.578125 19.6875 30.160156 19.148438 L 30.160156 19.777344 L 31.511719 19.777344 L 31.511719 15.65625 C 31.511719 14.90625 31.304688 14.367188 30.890625 14.035156 Z M 30.035156 18.117188 C 29.808594 18.316406 29.554688 18.476562 29.28125 18.601562 C 29.023438 18.714844 28.804688 18.773438 28.628906 18.773438 C 28.378906 18.773438 28.175781 18.722656 28.023438 18.621094 C 27.875 18.515625 27.796875 18.328125 27.796875 18.050781 C 27.796875 17.734375 27.914062 17.496094 28.144531 17.339844 C 28.378906 17.179688 28.761719 17.078125 29.289062 17.03125 L 30.035156 16.964844 L 30.035156 18.121094 Z M 33.113281 12.03125 L 33.113281 13.71875 L 32.355469 13.71875 L 32.355469 14.902344 L 33.113281 14.902344 L 33.113281 17.945312 C 33.113281 18.65625 33.265625 19.167969 33.570312 19.484375 C 33.871094 19.796875 34.371094 19.957031 35.0625 19.957031 C 35.5 19.957031 35.914062 19.894531 36.308594 19.777344 L 36.054688 18.558594 C 35.800781 18.664062 35.527344 18.722656 35.25 18.722656 C 35.039062 18.722656 34.875 18.65625 34.757812 18.519531 C 34.640625 18.386719 34.582031 18.128906 34.582031 17.75 L 34.582031 14.898438 L 35.972656 14.898438 L 35.972656 13.714844 L 34.582031 13.714844 L 34.582031 12.027344 L 33.109375 12.027344 Z M 40.265625 18.558594 C 40 18.671875 39.730469 18.726562 39.464844 18.726562 C 39.25 18.726562 39.085938 18.65625 38.96875 18.523438 C 38.851562 18.386719 38.792969 18.132812 38.792969 17.753906 L 38.792969 14.898438 L 40.183594 14.898438 L 40.183594 13.714844 L 38.792969 13.714844 L 38.792969 12.027344 L 37.324219 12.027344 L 37.324219 13.714844 L 36.566406 13.714844 L 36.566406 14.898438 L 37.324219 14.898438 L 37.324219 17.945312 C 37.324219 18.65625 37.476562 19.167969 37.78125 19.480469 C 38.082031 19.796875 38.582031 19.953125 39.273438 19.953125 C 39.695312 19.957031 40.117188 19.898438 40.519531 19.777344 L 40.261719 18.554688 Z M 46.4375 18.914062 L 45.34375 18.121094 C 45.179688 18.328125 44.988281 18.46875 44.769531 18.539062 C 44.546875 18.613281 44.296875 18.652344 44.007812 18.652344 C 43.511719 18.652344 43.148438 18.535156 42.914062 18.296875 C 42.683594 18.0625 42.550781 17.675781 42.527344 17.136719 L 46.496094 17.136719 L 46.496094 16.402344 C 46.496094 15.472656 46.273438 14.761719 45.828125 14.273438 C 45.382812 13.785156 44.730469 13.542969 43.882812 13.542969 C 41.964844 13.542969 41.007812 14.628906 41.007812 16.792969 C 41.011719 17.855469 41.253906 18.644531 41.738281 19.167969 C 42.21875 19.691406 42.953125 19.957031 43.941406 19.953125 C 44.601562 19.957031 45.121094 19.867188 45.503906 19.695312 C 45.882812 19.523438 46.203125 19.253906 46.4375 18.910156 Z M 42.804688 15.265625 C 42.902344 15.085938 43.039062 14.953125 43.207031 14.863281 C 43.371094 14.773438 43.585938 14.726562 43.847656 14.726562 C 44.644531 14.726562 45.039062 15.1875 45.039062 16.105469 L 42.566406 16.105469 C 42.625 15.726562 42.703125 15.445312 42.804688 15.265625 M 49.851562 19.957031 C 50.238281 19.957031 50.582031 19.886719 50.890625 19.75 C 51.203125 19.605469 51.496094 19.414062 51.753906 19.1875 L 51.753906 19.777344 L 53.105469 19.777344 L 53.105469 11.175781 L 51.636719 11.175781 L 51.636719 14.167969 C 51.441406 13.988281 51.195312 13.839844 50.902344 13.71875 C 50.625 13.605469 50.332031 13.546875 50.035156 13.542969 C 49.242188 13.542969 48.625 13.828125 48.1875 14.398438 C 47.746094 14.96875 47.527344 15.765625 47.527344 16.792969 C 47.527344 17.820312 47.730469 18.578125 48.128906 19.128906 C 48.527344 19.679688 49.101562 19.953125 49.855469 19.953125 Z M 49.402344 15.371094 C 49.640625 15.027344 49.960938 14.855469 50.355469 14.855469 C 50.59375 14.855469 50.828125 14.910156 51.058594 15.023438 C 51.289062 15.132812 51.480469 15.257812 51.636719 15.398438 L 51.636719 18.050781 C 51.445312 18.226562 51.226562 18.367188 50.992188 18.472656 C 50.757812 18.582031 50.503906 18.640625 50.246094 18.640625 C 49.835938 18.640625 49.535156 18.476562 49.339844 18.144531 C 49.140625 17.8125 49.042969 17.355469 49.042969 16.773438 C 49.042969 16.195312 49.164062 15.71875 49.402344 15.375 Z M 57.046875 13.894531 C 56.746094 14.085938 56.472656 14.316406 56.234375 14.582031 L 56.234375 13.714844 L 54.765625 13.714844 L 54.765625 19.777344 L 56.234375 19.777344 L 56.234375 15.835938 C 56.492188 15.582031 56.746094 15.386719 56.992188 15.253906 C 57.230469 15.121094 57.496094 15.054688 57.769531 15.054688 C 58.019531 15.054688 58.222656 15.09375 58.375 15.167969 L 58.664062 13.742188 C 58.535156 13.660156 58.316406 13.621094 58.015625 13.621094 C 57.671875 13.617188 57.335938 13.710938 57.046875 13.894531 Z M 63.699219 14.039062 C 63.285156 13.710938 62.613281 13.546875 61.683594 13.546875 C 61.074219 13.546875 60.554688 13.636719 60.125 13.820312 C 59.699219 14 59.382812 14.265625 59.179688 14.605469 L 60.328125 15.351562 C 60.4375 15.152344 60.609375 14.996094 60.835938 14.890625 C 61.066406 14.78125 61.339844 14.730469 61.660156 14.730469 C 62.050781 14.730469 62.339844 14.789062 62.542969 14.917969 C 62.746094 15.042969 62.847656 15.273438 62.847656 15.613281 L 62.847656 15.882812 L 61.585938 16.007812 C 60.949219 16.070312 60.460938 16.183594 60.121094 16.34375 C 59.777344 16.503906 59.523438 16.726562 59.347656 17.003906 C 59.175781 17.285156 59.089844 17.644531 59.089844 18.074219 C 59.089844 18.625 59.257812 19.078125 59.597656 19.429688 C 59.933594 19.78125 60.433594 19.957031 61.09375 19.957031 C 61.753906 19.957031 62.382812 19.6875 62.964844 19.148438 L 62.964844 19.777344 L 64.316406 19.777344 L 64.316406 15.65625 C 64.316406 14.90625 64.113281 14.367188 63.699219 14.035156 Z M 62.847656 18.117188 C 62.597656 18.328125 62.347656 18.488281 62.089844 18.601562 C 61.832031 18.714844 61.617188 18.773438 61.4375 18.773438 C 61.1875 18.773438 60.988281 18.722656 60.835938 18.621094 C 60.683594 18.515625 60.605469 18.328125 60.605469 18.050781 C 60.605469 17.734375 60.722656 17.496094 60.957031 17.339844 C 61.1875 17.179688 61.570312 17.078125 62.097656 17.03125 L 62.84375 16.964844 L 62.84375 18.121094 Z M 67.398438 11.175781 L 65.929688 11.175781 L 65.929688 19.777344 L 67.398438 19.777344 Z M 71.625 13.546875 C 69.710938 13.546875 68.753906 14.628906 68.753906 16.796875 C 68.753906 17.855469 68.996094 18.648438 69.484375 19.167969 C 69.964844 19.695312 70.699219 19.957031 71.6875 19.957031 C 72.347656 19.957031 72.867188 19.871094 73.25 19.695312 C 73.625 19.527344 73.949219 19.253906 74.179688 18.910156 L 73.085938 18.117188 C 72.921875 18.324219 72.730469 18.464844 72.511719 18.539062 C 72.292969 18.613281 72.039062 18.648438 71.753906 18.648438 C 71.253906 18.648438 70.890625 18.53125 70.65625 18.296875 C 70.425781 18.0625 70.296875 17.675781 70.269531 17.136719 L 74.242188 17.136719 L 74.242188 16.402344 C 74.242188 15.46875 74.019531 14.757812 73.570312 14.273438 C 73.125 13.785156 72.476562 13.539062 71.625 13.542969 Z M 70.3125 16.109375 C 70.367188 15.726562 70.449219 15.449219 70.546875 15.269531 C 70.648438 15.089844 70.78125 14.957031 70.949219 14.863281 C 71.117188 14.773438 71.332031 14.730469 71.59375 14.730469 C 72.386719 14.730469 72.785156 15.1875 72.785156 16.109375 Z M 22.839844 25.210938 C 22.644531 25.03125 22.398438 24.882812 22.105469 24.761719 C 21.828125 24.648438 21.535156 24.589844 21.238281 24.585938 C 20.445312 24.585938 19.828125 24.871094 19.386719 25.441406 C 18.949219 26.011719 18.730469 26.8125 18.730469 27.839844 C 18.730469 28.867188 18.929688 29.621094 19.328125 30.171875 C 19.730469 30.722656 20.304688 31 21.058594 31 C 21.445312 31 21.789062 30.929688 22.09375 30.792969 C 22.40625 30.644531 22.699219 30.457031 22.960938 30.230469 L 22.960938 30.820312 L 24.308594 30.820312 L 24.308594 22.214844 L 22.839844 22.214844 Z M 22.839844 29.09375 C 22.648438 29.269531 22.429688 29.410156 22.191406 29.511719 C 21.960938 29.621094 21.707031 29.679688 21.449219 29.683594 C 21.039062 29.683594 20.734375 29.515625 20.539062 29.1875 C 20.34375 28.855469 20.246094 28.398438 20.246094 27.816406 C 20.246094 27.234375 20.367188 26.761719 20.605469 26.417969 C 20.847656 26.074219 21.164062 25.902344 21.558594 25.898438 C 21.796875 25.898438 22.03125 25.953125 22.261719 26.066406 C 22.492188 26.175781 22.683594 26.300781 22.839844 26.445312 L 22.839844 29.097656 Z M 26.691406 22.351562 C 26.398438 22.351562 26.191406 22.410156 26.070312 22.527344 C 25.949219 22.644531 25.886719 22.839844 25.886719 23.109375 C 25.886719 23.351562 25.941406 23.539062 26.054688 23.671875 C 26.167969 23.800781 26.378906 23.863281 26.691406 23.863281 C 26.972656 23.863281 27.179688 23.808594 27.316406 23.699219 C 27.453125 23.585938 27.523438 23.386719 27.519531 23.109375 C 27.519531 22.828125 27.457031 22.632812 27.328125 22.519531 C 27.199219 22.40625 26.984375 22.351562 26.6875 22.351562 Z M 27.4375 24.761719 L 25.96875 24.761719 L 25.96875 30.820312 L 27.4375 30.820312 Z M 36.6875 28.214844 L 34.015625 22.828125 L 31.929688 22.828125 L 31.929688 30.820312 L 33.5 30.820312 L 33.5 25.109375 L 36.375 30.820312 L 38.265625 30.820312 L 38.265625 22.828125 L 36.6875 22.828125 Z M 42.507812 24.589844 C 41.515625 24.589844 40.789062 24.867188 40.328125 25.429688 C 39.867188 25.988281 39.636719 26.78125 39.636719 27.804688 C 39.636719 29.9375 40.59375 31 42.507812 31.003906 C 43.5 31 44.222656 30.722656 44.683594 30.160156 C 45.140625 29.601562 45.371094 28.816406 45.371094 27.804688 C 45.371094 26.792969 45.140625 25.988281 44.683594 25.429688 C 44.222656 24.871094 43.5 24.589844 42.507812 24.589844 M 43.539062 29.242188 C 43.332031 29.542969 42.988281 29.695312 42.511719 29.695312 C 42.035156 29.695312 41.683594 29.542969 41.472656 29.234375 C 41.261719 28.929688 41.15625 28.453125 41.15625 27.804688 C 41.15625 27.15625 41.261719 26.671875 41.476562 26.359375 C 41.6875 26.042969 42.035156 25.886719 42.511719 25.886719 C 42.988281 25.886719 43.339844 26.039062 43.546875 26.34375 C 43.75 26.652344 43.855469 27.136719 43.855469 27.804688 C 43.855469 28.46875 43.75 28.9375 43.539062 29.238281 Z M 48.96875 29.769531 C 48.753906 29.769531 48.59375 29.703125 48.476562 29.566406 C 48.359375 29.433594 48.300781 29.175781 48.300781 28.800781 L 48.300781 25.945312 L 49.691406 25.945312 L 49.691406 24.761719 L 48.300781 24.761719 L 48.300781 23.074219 L 46.832031 23.074219 L 46.832031 24.761719 L 46.074219 24.761719 L 46.074219 25.945312 L 46.832031 25.945312 L 46.832031 28.988281 C 46.832031 29.699219 46.980469 30.210938 47.285156 30.527344 C 47.585938 30.84375 48.085938 31 48.78125 31 C 49.214844 31 49.632812 30.941406 50.027344 30.820312 L 49.769531 29.601562 C 49.515625 29.710938 49.242188 29.765625 48.964844 29.769531 Z M 53.390625 24.589844 C 52.394531 24.589844 51.667969 24.867188 51.207031 25.429688 C 50.75 25.988281 50.519531 26.78125 50.519531 27.804688 C 50.519531 29.9375 51.476562 31 53.390625 31.003906 C 54.378906 31 55.101562 30.722656 55.5625 30.160156 C 56.019531 29.601562 56.253906 28.816406 56.253906 27.804688 C 56.253906 26.792969 56.019531 25.988281 55.5625 25.429688 C 55.101562 24.871094 54.378906 24.589844 53.390625 24.589844 M 54.417969 29.242188 C 54.207031 29.542969 53.867188 29.695312 53.390625 29.695312 C 52.914062 29.695312 52.5625 29.542969 52.351562 29.234375 C 52.140625 28.929688 52.035156 28.453125 52.035156 27.804688 C 52.035156 27.15625 52.140625 26.671875 52.355469 26.359375 C 52.566406 26.042969 52.914062 25.886719 53.390625 25.886719 C 53.867188 25.886719 54.21875 26.039062 54.421875 26.34375 C 54.628906 26.652344 54.730469 27.136719 54.730469 27.804688 C 54.730469 28.46875 54.628906 28.9375 54.417969 29.238281 Z M 54.417969 29.242188 "/>
</g>
</svg>
