<?xml version="1.0" encoding="UTF-8"?>
<svg xmlns="http://www.w3.org/2000/svg" xmlns:xlink="http://www.w3.org/1999/xlink" width="px" height="px" viewBox="0 0 61 23" version="1.1">
<g id="surface1">
<path style=" stroke:none;fill-rule:nonzero;fill:rgb(11.372549%,11.372549%,10.588235%);fill-opacity:1;" d="M 7.515625 5.132812 C 6.820312 5.132812 6.257812 5.703125 6.257812 6.402344 C 6.257812 7.105469 6.824219 7.675781 7.515625 7.675781 L 7.515625 10.21875 L 5.035156 10.21875 L 5.035156 8.949219 C 5.035156 8.246094 4.472656 7.679688 3.773438 7.675781 C 3.078125 7.679688 2.515625 8.246094 2.515625 8.949219 L 2.515625 10.21875 L 1.257812 10.21875 C 0.5625 10.222656 0 10.792969 0 11.492188 C 0 12.191406 0.5625 12.761719 1.257812 12.765625 L 2.515625 12.765625 L 2.515625 14.039062 C 2.515625 14.738281 3.078125 15.308594 3.773438 15.308594 C 4.472656 15.308594 5.035156 14.738281 5.035156 14.035156 L 5.035156 12.765625 L 7.515625 12.765625 L 7.515625 15.308594 C 6.832031 15.328125 6.289062 15.894531 6.289062 16.582031 C 6.289062 17.269531 6.832031 17.832031 7.515625 17.851562 L 7.515625 22.980469 L 10.128906 22.980469 L 10.128906 0 L 7.515625 0 Z M 15.332031 2.496094 L 16.722656 4.972656 L 17.414062 4.972656 L 18.820312 2.496094 L 18.820312 6.480469 L 19.980469 6.480469 L 19.980469 0.546875 L 18.628906 0.546875 L 17.085938 3.363281 L 15.558594 0.546875 L 14.179688 0.546875 L 14.179688 6.480469 L 15.332031 6.480469 Z M 22.546875 6.613281 C 22.804688 6.613281 23.070312 6.546875 23.351562 6.414062 C 23.617188 6.289062 23.855469 6.117188 24.058594 5.902344 L 24.058594 6.480469 L 25.148438 6.480469 L 25.148438 1.984375 L 24.058594 1.984375 L 24.058594 4.988281 C 23.601562 5.421875 23.210938 5.636719 22.886719 5.636719 C 22.726562 5.636719 22.601562 5.605469 22.519531 5.539062 C 22.4375 5.476562 22.375 5.359375 22.335938 5.191406 C 22.300781 5.023438 22.285156 4.78125 22.285156 4.460938 L 22.285156 1.984375 L 21.191406 1.984375 L 21.191406 4.988281 C 21.191406 5.511719 21.289062 5.910156 21.492188 6.191406 C 21.691406 6.472656 22.042969 6.613281 22.546875 6.613281 Z M 27.921875 5.710938 C 27.726562 5.710938 27.539062 5.679688 27.367188 5.617188 C 27.191406 5.554688 27.039062 5.433594 26.90625 5.25 L 26.089844 5.828125 C 26.429688 6.351562 27.0625 6.613281 27.992188 6.613281 C 28.339844 6.613281 28.652344 6.558594 28.925781 6.445312 C 29.199219 6.335938 29.410156 6.175781 29.558594 5.960938 C 29.707031 5.75 29.78125 5.496094 29.78125 5.199219 C 29.78125 4.929688 29.726562 4.703125 29.613281 4.519531 C 29.492188 4.328125 29.320312 4.167969 29.121094 4.058594 C 28.90625 3.933594 28.542969 3.808594 28.039062 3.683594 C 27.730469 3.605469 27.523438 3.53125 27.417969 3.460938 C 27.320312 3.402344 27.261719 3.296875 27.261719 3.183594 C 27.261719 3.058594 27.320312 2.957031 27.4375 2.878906 C 27.550781 2.800781 27.722656 2.761719 27.949219 2.761719 C 28.390625 2.761719 28.707031 2.914062 28.902344 3.214844 L 29.722656 2.628906 C 29.558594 2.371094 29.324219 2.175781 29.019531 2.050781 C 28.714844 1.917969 28.367188 1.855469 27.96875 1.855469 C 27.382812 1.855469 26.9375 1.984375 26.636719 2.242188 C 26.335938 2.496094 26.1875 2.824219 26.1875 3.222656 C 26.1875 3.621094 26.308594 3.917969 26.546875 4.15625 C 26.789062 4.398438 27.203125 4.582031 27.792969 4.714844 C 28.105469 4.792969 28.335938 4.867188 28.484375 4.941406 C 28.632812 5.011719 28.703125 5.117188 28.703125 5.25 C 28.703125 5.558594 28.445312 5.710938 27.925781 5.710938 Z M 32.6875 6.613281 C 33.179688 6.613281 33.566406 6.546875 33.851562 6.417969 C 34.132812 6.292969 34.371094 6.09375 34.546875 5.835938 L 33.730469 5.25 C 33.609375 5.402344 33.46875 5.507812 33.304688 5.5625 C 33.121094 5.617188 32.929688 5.648438 32.738281 5.644531 C 32.367188 5.644531 32.097656 5.554688 31.925781 5.378906 C 31.753906 5.207031 31.65625 4.921875 31.632812 4.519531 L 34.589844 4.519531 L 34.589844 3.972656 C 34.589844 3.285156 34.425781 2.757812 34.09375 2.394531 C 33.757812 2.035156 33.277344 1.851562 32.644531 1.851562 C 31.21875 1.855469 30.507812 2.65625 30.507812 4.265625 C 30.507812 5.050781 30.6875 5.636719 31.046875 6.027344 C 31.40625 6.414062 31.953125 6.609375 32.6875 6.609375 Z M 31.84375 3.132812 C 31.917969 3 32.015625 2.902344 32.140625 2.832031 C 32.265625 2.765625 32.425781 2.734375 32.621094 2.734375 C 33.210938 2.734375 33.503906 3.074219 33.503906 3.757812 L 31.667969 3.757812 C 31.710938 3.472656 31.769531 3.265625 31.84375 3.132812 M 37.492188 6.613281 C 38.226562 6.613281 38.765625 6.40625 39.109375 5.988281 C 39.449219 5.574219 39.621094 4.992188 39.621094 4.242188 C 39.621094 3.492188 39.449219 2.894531 39.109375 2.476562 C 38.765625 2.0625 38.226562 1.855469 37.492188 1.855469 C 36.757812 1.855469 36.210938 2.0625 35.871094 2.476562 C 35.527344 2.894531 35.355469 3.480469 35.355469 4.242188 C 35.355469 5.820312 36.066406 6.613281 37.492188 6.613281 M 36.71875 3.167969 C 36.878906 2.9375 37.136719 2.820312 37.492188 2.820312 C 37.847656 2.820312 38.105469 2.933594 38.257812 3.160156 C 38.410156 3.386719 38.488281 3.75 38.488281 4.242188 C 38.488281 4.738281 38.410156 5.085938 38.253906 5.308594 C 38.101562 5.53125 37.847656 5.644531 37.492188 5.644531 C 37.136719 5.644531 36.875 5.53125 36.71875 5.304688 C 36.5625 5.074219 36.484375 4.722656 36.484375 4.242188 C 36.484375 3.761719 36.5625 3.402344 36.722656 3.167969 Z M 44.214844 6.613281 C 44.503906 6.613281 44.761719 6.5625 44.988281 6.460938 C 45.21875 6.351562 45.4375 6.210938 45.632812 6.042969 L 45.632812 6.480469 L 46.636719 6.480469 L 46.636719 0.0976562 L 45.542969 0.0976562 L 45.542969 2.316406 C 45.382812 2.175781 45.195312 2.0625 44.996094 1.984375 C 44.792969 1.902344 44.574219 1.859375 44.351562 1.855469 C 43.761719 1.855469 43.304688 2.066406 42.976562 2.488281 C 42.648438 2.910156 42.484375 3.503906 42.484375 4.265625 C 42.484375 5.03125 42.636719 5.589844 42.933594 6 C 43.230469 6.40625 43.65625 6.613281 44.21875 6.613281 Z M 43.882812 3.210938 C 44.058594 2.957031 44.296875 2.828125 44.589844 2.828125 C 44.769531 2.828125 44.941406 2.871094 45.113281 2.953125 C 45.285156 3.035156 45.429688 3.128906 45.542969 3.234375 L 45.542969 5.199219 C 45.410156 5.324219 45.25 5.425781 45.0625 5.511719 C 44.890625 5.589844 44.703125 5.632812 44.511719 5.636719 C 44.207031 5.636719 43.980469 5.515625 43.835938 5.269531 C 43.6875 5.023438 43.617188 4.683594 43.617188 4.253906 C 43.617188 3.820312 43.703125 3.46875 43.882812 3.214844 Z M 51.683594 5.839844 L 50.867188 5.25 C 50.746094 5.40625 50.605469 5.507812 50.441406 5.5625 C 50.277344 5.617188 50.089844 5.644531 49.878906 5.644531 C 49.507812 5.644531 49.234375 5.558594 49.0625 5.382812 C 48.890625 5.207031 48.792969 4.921875 48.773438 4.519531 L 51.726562 4.519531 L 51.726562 3.976562 C 51.726562 3.285156 51.5625 2.757812 51.230469 2.398438 C 50.898438 2.035156 50.414062 1.855469 49.78125 1.855469 C 48.355469 1.855469 47.644531 2.660156 47.644531 4.265625 C 47.644531 5.054688 47.824219 5.640625 48.1875 6.027344 C 48.546875 6.417969 49.09375 6.613281 49.824219 6.609375 C 50.316406 6.609375 50.703125 6.546875 50.988281 6.417969 C 51.269531 6.292969 51.507812 6.089844 51.683594 5.835938 Z M 48.980469 3.132812 C 49.054688 3 49.152344 2.902344 49.277344 2.832031 C 49.402344 2.765625 49.5625 2.730469 49.757812 2.734375 C 50.347656 2.734375 50.644531 3.074219 50.644531 3.757812 L 48.804688 3.757812 C 48.847656 3.472656 48.90625 3.265625 48.980469 3.132812 M 53.808594 0.0976562 L 52.714844 0.0976562 L 52.714844 6.480469 L 53.808594 6.480469 Z M 56.136719 0.0976562 L 55.042969 0.0976562 L 55.042969 6.480469 L 56.136719 6.480469 Z M 60.539062 2.222656 C 60.234375 1.976562 59.734375 1.855469 59.042969 1.855469 C 58.589844 1.855469 58.203125 1.921875 57.882812 2.058594 C 57.566406 2.195312 57.332031 2.390625 57.179688 2.644531 L 58.03125 3.195312 C 58.117188 3.042969 58.253906 2.921875 58.410156 2.855469 C 58.582031 2.773438 58.785156 2.734375 59.023438 2.734375 C 59.3125 2.734375 59.53125 2.78125 59.683594 2.871094 C 59.832031 2.964844 59.90625 3.136719 59.90625 3.390625 L 59.90625 3.589844 L 58.96875 3.683594 C 58.496094 3.730469 58.132812 3.8125 57.878906 3.933594 C 57.625 4.050781 57.433594 4.214844 57.304688 4.421875 C 57.175781 4.632812 57.113281 4.894531 57.113281 5.214844 C 57.113281 5.625 57.238281 5.960938 57.492188 6.222656 C 57.742188 6.484375 58.113281 6.613281 58.605469 6.613281 C 59.097656 6.613281 59.5625 6.414062 59.996094 6.011719 L 59.996094 6.480469 L 61 6.480469 L 61 3.421875 C 61 2.867188 60.847656 2.464844 60.542969 2.21875 Z M 59.90625 5.25 C 59.722656 5.40625 59.535156 5.523438 59.34375 5.609375 C 59.152344 5.691406 58.992188 5.734375 58.859375 5.734375 C 58.671875 5.734375 58.523438 5.695312 58.410156 5.621094 C 58.296875 5.542969 58.242188 5.402344 58.242188 5.199219 C 58.242188 4.964844 58.328125 4.789062 58.5 4.671875 C 58.675781 4.554688 58.957031 4.476562 59.351562 4.441406 L 59.90625 4.390625 Z M 17.480469 13.527344 C 17.285156 13.660156 17.015625 13.726562 16.667969 13.726562 C 16.152344 13.726562 15.773438 13.558594 15.539062 13.226562 C 15.300781 12.890625 15.183594 12.386719 15.183594 11.707031 C 15.183594 10.984375 15.308594 10.464844 15.5625 10.15625 C 15.8125 9.84375 16.179688 9.691406 16.660156 9.691406 C 16.859375 9.691406 17.03125 9.710938 17.175781 9.757812 C 17.320312 9.804688 17.449219 9.871094 17.5625 9.964844 C 17.675781 10.054688 17.800781 10.203125 17.933594 10.410156 L 18.863281 9.679688 C 18.675781 9.363281 18.398438 9.105469 18.039062 8.910156 C 17.675781 8.714844 17.207031 8.617188 16.632812 8.617188 C 15.765625 8.617188 15.101562 8.871094 14.640625 9.371094 C 14.179688 9.875 13.949219 10.65625 13.949219 11.707031 C 13.949219 13.769531 14.859375 14.800781 16.675781 14.800781 C 17.210938 14.800781 17.660156 14.710938 18.027344 14.53125 C 18.390625 14.351562 18.699219 14.074219 18.953125 13.695312 L 18.007812 12.992188 C 17.863281 13.199219 17.683594 13.378906 17.480469 13.527344 Z M 22.980469 10.414062 C 22.671875 10.171875 22.171875 10.050781 21.480469 10.050781 C 21.027344 10.050781 20.640625 10.117188 20.324219 10.253906 C 20.003906 10.386719 19.769531 10.582031 19.617188 10.835938 L 20.472656 11.390625 C 20.554688 11.242188 20.679688 11.128906 20.851562 11.046875 C 21.023438 10.96875 21.226562 10.929688 21.464844 10.929688 C 21.75 10.925781 21.972656 10.972656 22.121094 11.066406 C 22.269531 11.160156 22.347656 11.332031 22.347656 11.582031 L 22.347656 11.785156 L 21.410156 11.875 C 20.933594 11.925781 20.570312 12.007812 20.316406 12.125 C 20.0625 12.246094 19.871094 12.410156 19.746094 12.617188 C 19.617188 12.824219 19.550781 13.089844 19.550781 13.410156 C 19.550781 13.820312 19.675781 14.152344 19.929688 14.414062 C 20.179688 14.675781 20.550781 14.808594 21.042969 14.804688 C 21.535156 14.804688 22.003906 14.605469 22.433594 14.207031 L 22.433594 14.675781 L 23.441406 14.675781 L 23.441406 11.617188 C 23.441406 11.058594 23.285156 10.660156 22.980469 10.414062 Z M 22.34375 13.441406 C 22.175781 13.589844 21.984375 13.710938 21.78125 13.800781 C 21.589844 13.886719 21.429688 13.929688 21.296875 13.929688 C 21.109375 13.929688 20.960938 13.890625 20.847656 13.8125 C 20.738281 13.738281 20.679688 13.597656 20.679688 13.394531 C 20.679688 13.160156 20.765625 12.980469 20.9375 12.863281 C 21.113281 12.746094 21.394531 12.671875 21.789062 12.636719 L 22.34375 12.585938 Z M 24.632812 8.925781 L 24.632812 10.175781 L 24.070312 10.175781 L 24.070312 11.054688 L 24.632812 11.054688 L 24.632812 13.316406 C 24.632812 13.839844 24.746094 14.222656 24.972656 14.457031 C 25.195312 14.6875 25.566406 14.804688 26.082031 14.804688 C 26.410156 14.804688 26.71875 14.761719 27.011719 14.671875 L 26.820312 13.769531 C 26.621094 13.851562 26.421875 13.890625 26.222656 13.890625 C 26.0625 13.890625 25.941406 13.839844 25.855469 13.742188 C 25.769531 13.640625 25.726562 13.453125 25.726562 13.171875 L 25.726562 11.054688 L 26.757812 11.054688 L 26.757812 10.175781 L 25.726562 10.175781 L 25.726562 8.921875 L 24.632812 8.921875 Z M 29.953125 13.769531 C 29.753906 13.851562 29.554688 13.894531 29.355469 13.894531 C 29.199219 13.894531 29.078125 13.84375 28.992188 13.742188 C 28.902344 13.640625 28.859375 13.453125 28.859375 13.171875 L 28.859375 11.054688 L 29.894531 11.054688 L 29.894531 10.175781 L 28.859375 10.175781 L 28.859375 8.925781 L 27.765625 8.925781 L 27.765625 10.175781 L 27.203125 10.175781 L 27.203125 11.054688 L 27.765625 11.054688 L 27.765625 13.3125 C 27.765625 13.839844 27.878906 14.21875 28.105469 14.453125 C 28.328125 14.6875 28.699219 14.804688 29.214844 14.804688 C 29.539062 14.804688 29.851562 14.761719 30.144531 14.671875 L 29.953125 13.765625 Z M 34.546875 14.03125 L 33.730469 13.441406 C 33.609375 13.597656 33.46875 13.703125 33.304688 13.753906 C 33.121094 13.8125 32.929688 13.839844 32.738281 13.839844 C 32.367188 13.839844 32.097656 13.75 31.925781 13.574219 C 31.753906 13.402344 31.65625 13.113281 31.632812 12.714844 L 34.589844 12.714844 L 34.589844 12.167969 C 34.589844 11.480469 34.425781 10.953125 34.09375 10.589844 C 33.757812 10.230469 33.277344 10.046875 32.644531 10.046875 C 31.21875 10.046875 30.507812 10.851562 30.507812 12.460938 C 30.507812 13.246094 30.6875 13.832031 31.046875 14.222656 C 31.40625 14.609375 31.953125 14.804688 32.6875 14.804688 C 33.179688 14.804688 33.566406 14.742188 33.851562 14.609375 C 34.128906 14.484375 34.371094 14.285156 34.542969 14.03125 Z M 31.84375 11.328125 C 31.917969 11.195312 32.015625 11.09375 32.140625 11.027344 C 32.265625 10.960938 32.425781 10.925781 32.621094 10.925781 C 33.210938 10.925781 33.503906 11.269531 33.503906 11.949219 L 31.667969 11.949219 C 31.710938 11.667969 31.769531 11.460938 31.84375 11.328125 M 37.085938 14.808594 C 37.351562 14.8125 37.613281 14.757812 37.855469 14.652344 C 38.089844 14.546875 38.308594 14.40625 38.5 14.238281 L 38.5 14.675781 L 39.507812 14.675781 L 39.507812 8.292969 L 38.414062 8.292969 L 38.414062 10.511719 C 38.25 10.367188 38.066406 10.257812 37.867188 10.179688 C 37.660156 10.09375 37.441406 10.050781 37.222656 10.046875 C 36.632812 10.046875 36.171875 10.261719 35.84375 10.683594 C 35.519531 11.105469 35.355469 11.699219 35.355469 12.460938 C 35.355469 13.222656 35.503906 13.785156 35.800781 14.191406 C 36.097656 14.601562 36.527344 14.804688 37.085938 14.804688 Z M 36.75 11.40625 C 36.929688 11.152344 37.164062 11.023438 37.457031 11.023438 C 37.636719 11.023438 37.808594 11.0625 37.980469 11.144531 C 38.152344 11.226562 38.296875 11.320312 38.414062 11.425781 L 38.414062 13.394531 C 38.28125 13.515625 38.121094 13.621094 37.933594 13.703125 C 37.757812 13.785156 37.570312 13.828125 37.378906 13.832031 C 37.074219 13.832031 36.847656 13.707031 36.703125 13.460938 C 36.558594 13.214844 36.484375 12.878906 36.484375 12.445312 C 36.484375 12.015625 36.574219 11.660156 36.75 11.40625 Z M 42.4375 10.308594 C 42.210938 10.449219 42.011719 10.621094 41.832031 10.820312 L 41.832031 10.175781 L 40.742188 10.175781 L 40.742188 14.671875 L 41.832031 14.671875 L 41.832031 11.75 C 42.023438 11.558594 42.210938 11.417969 42.398438 11.316406 C 42.578125 11.21875 42.773438 11.167969 42.976562 11.167969 C 43.160156 11.171875 43.3125 11.199219 43.425781 11.253906 L 43.640625 10.195312 C 43.546875 10.136719 43.382812 10.105469 43.15625 10.105469 C 42.890625 10.105469 42.652344 10.171875 42.4375 10.308594 Z M 47.386719 10.414062 C 47.078125 10.171875 46.578125 10.050781 45.886719 10.050781 C 45.433594 10.050781 45.046875 10.117188 44.726562 10.253906 C 44.410156 10.386719 44.175781 10.582031 44.023438 10.835938 L 44.878906 11.390625 C 44.960938 11.242188 45.085938 11.128906 45.257812 11.046875 C 45.429688 10.96875 45.632812 10.929688 45.867188 10.929688 C 46.160156 10.929688 46.375 10.972656 46.527344 11.066406 C 46.675781 11.160156 46.75 11.332031 46.75 11.582031 L 46.75 11.785156 L 45.816406 11.875 C 45.339844 11.925781 44.976562 12.007812 44.722656 12.125 C 44.46875 12.246094 44.277344 12.410156 44.148438 12.617188 C 44.019531 12.824219 43.957031 13.089844 43.957031 13.410156 C 43.957031 13.820312 44.082031 14.152344 44.335938 14.414062 C 44.585938 14.675781 44.957031 14.808594 45.449219 14.804688 C 45.941406 14.804688 46.40625 14.605469 46.839844 14.207031 L 46.839844 14.675781 L 47.847656 14.675781 L 47.847656 11.617188 C 47.847656 11.058594 47.691406 10.660156 47.386719 10.414062 Z M 46.75 13.441406 C 46.582031 13.589844 46.390625 13.710938 46.1875 13.800781 C 45.996094 13.886719 45.835938 13.929688 45.703125 13.929688 C 45.515625 13.929688 45.367188 13.890625 45.253906 13.8125 C 45.144531 13.738281 45.085938 13.597656 45.085938 13.394531 C 45.085938 13.160156 45.171875 12.980469 45.34375 12.863281 C 45.519531 12.746094 45.800781 12.671875 46.195312 12.636719 L 46.75 12.585938 Z M 50.136719 8.292969 L 49.046875 8.292969 L 49.046875 14.675781 L 50.136719 14.675781 Z M 53.285156 10.050781 C 51.859375 10.050781 51.148438 10.855469 51.148438 12.460938 C 51.148438 13.246094 51.328125 13.835938 51.6875 14.222656 C 52.046875 14.613281 52.59375 14.808594 53.328125 14.804688 C 53.820312 14.808594 54.207031 14.742188 54.492188 14.613281 C 54.769531 14.488281 55.011719 14.285156 55.183594 14.03125 L 54.367188 13.441406 C 54.246094 13.597656 54.105469 13.699219 53.941406 13.753906 C 53.78125 13.808594 53.589844 13.835938 53.378906 13.835938 C 53.007812 13.835938 52.734375 13.75 52.5625 13.574219 C 52.390625 13.398438 52.292969 13.113281 52.273438 12.710938 L 55.226562 12.710938 L 55.226562 12.167969 C 55.226562 11.476562 55.0625 10.949219 54.730469 10.589844 C 54.398438 10.226562 53.914062 10.046875 53.28125 10.046875 Z M 52.304688 11.953125 C 52.347656 11.667969 52.40625 11.460938 52.480469 11.328125 C 52.554688 11.195312 52.65625 11.097656 52.777344 11.027344 C 52.902344 10.960938 53.0625 10.929688 53.257812 10.929688 C 53.847656 10.929688 54.144531 11.269531 54.144531 11.953125 Z M 16.988281 18.707031 C 16.828125 18.5625 16.644531 18.449219 16.445312 18.371094 C 16.238281 18.289062 16.019531 18.246094 15.800781 18.242188 C 15.210938 18.242188 14.75 18.453125 14.421875 18.875 C 14.097656 19.300781 13.933594 19.890625 13.933594 20.65625 C 13.933594 21.417969 14.082031 21.976562 14.378906 22.386719 C 14.675781 22.792969 15.105469 23 15.664062 23 C 15.953125 23 16.207031 22.949219 16.433594 22.84375 C 16.667969 22.738281 16.886719 22.597656 17.078125 22.429688 L 17.078125 22.867188 L 18.085938 22.867188 L 18.085938 16.484375 L 16.992188 16.484375 L 16.992188 18.703125 Z M 16.988281 21.585938 C 16.859375 21.707031 16.695312 21.8125 16.507812 21.898438 C 16.335938 21.976562 16.148438 22.019531 15.957031 22.023438 C 15.652344 22.023438 15.425781 21.898438 15.28125 21.652344 C 15.132812 21.410156 15.0625 21.070312 15.0625 20.636719 C 15.0625 20.207031 15.152344 19.855469 15.328125 19.597656 C 15.507812 19.34375 15.742188 19.214844 16.035156 19.214844 C 16.214844 19.214844 16.390625 19.257812 16.5625 19.339844 C 16.730469 19.421875 16.875 19.515625 16.992188 19.621094 L 16.992188 21.585938 Z M 20.410156 18.371094 L 19.316406 18.371094 L 19.316406 22.867188 L 20.410156 22.867188 Z M 19.855469 16.582031 C 19.636719 16.582031 19.484375 16.628906 19.394531 16.714844 C 19.300781 16.800781 19.257812 16.945312 19.257812 17.144531 C 19.257812 17.324219 19.300781 17.464844 19.382812 17.5625 C 19.464844 17.660156 19.621094 17.707031 19.855469 17.707031 C 20.066406 17.707031 20.21875 17.664062 20.320312 17.582031 C 20.421875 17.5 20.472656 17.351562 20.472656 17.144531 C 20.472656 16.9375 20.425781 16.792969 20.328125 16.707031 C 20.234375 16.625 20.074219 16.582031 19.855469 16.582031 Z M 27.292969 20.933594 L 25.304688 16.9375 L 23.75 16.9375 L 23.75 22.867188 L 24.921875 22.867188 L 24.921875 18.628906 L 27.058594 22.867188 L 28.46875 22.867188 L 28.46875 16.9375 L 27.292969 16.9375 Z M 31.625 18.242188 C 30.882812 18.242188 30.34375 18.449219 30 18.867188 C 29.65625 19.28125 29.488281 19.871094 29.488281 20.628906 C 29.488281 22.210938 30.199219 23 31.621094 23 C 32.359375 23 32.898438 22.792969 33.238281 22.378906 C 33.578125 21.960938 33.75 21.378906 33.75 20.628906 C 33.75 19.878906 33.578125 19.28125 33.238281 18.867188 C 32.898438 18.449219 32.359375 18.242188 31.621094 18.242188 M 32.386719 21.695312 C 32.230469 21.917969 31.976562 22.03125 31.625 22.03125 C 31.269531 22.03125 31.007812 21.917969 30.851562 21.691406 C 30.695312 21.464844 30.613281 21.109375 30.613281 20.628906 C 30.613281 20.148438 30.695312 19.789062 30.851562 19.554688 C 31.011719 19.324219 31.269531 19.207031 31.625 19.207031 C 31.980469 19.207031 32.238281 19.320312 32.390625 19.546875 C 32.542969 19.773438 32.621094 20.132812 32.621094 20.628906 C 32.621094 21.121094 32.542969 21.46875 32.386719 21.695312 Z M 36.429688 22.089844 C 36.269531 22.085938 36.148438 22.039062 36.0625 21.9375 C 35.972656 21.835938 35.929688 21.648438 35.929688 21.367188 L 35.929688 19.25 L 36.964844 19.25 L 36.964844 18.371094 L 35.929688 18.371094 L 35.929688 17.121094 L 34.835938 17.121094 L 34.835938 18.371094 L 34.273438 18.371094 L 34.273438 19.25 L 34.835938 19.25 L 34.835938 21.507812 C 34.835938 22.035156 34.949219 22.414062 35.175781 22.648438 C 35.402344 22.882812 35.769531 23 36.285156 23 C 36.613281 23 36.921875 22.957031 37.214844 22.867188 L 37.023438 21.960938 C 36.824219 22.042969 36.625 22.085938 36.425781 22.085938 Z M 39.71875 18.242188 C 38.976562 18.242188 38.4375 18.449219 38.09375 18.867188 C 37.753906 19.28125 37.582031 19.871094 37.582031 20.628906 C 37.582031 22.210938 38.292969 23 39.71875 23 C 40.453125 23 40.992188 22.792969 41.332031 22.378906 C 41.675781 21.960938 41.847656 21.378906 41.847656 20.628906 C 41.847656 19.878906 41.675781 19.28125 41.332031 18.867188 C 40.992188 18.449219 40.453125 18.242188 39.71875 18.242188 M 40.480469 21.695312 C 40.324219 21.917969 40.070312 22.03125 39.71875 22.03125 C 39.1875 22.03125 39.101562 21.917969 38.945312 21.691406 C 38.789062 21.464844 38.707031 21.109375 38.707031 20.628906 C 38.707031 20.148438 38.789062 19.789062 38.945312 19.554688 C 39.105469 19.324219 39.363281 19.207031 39.71875 19.207031 C 40.074219 19.207031 40.332031 19.320312 40.484375 19.546875 C 40.636719 19.773438 40.714844 20.132812 40.714844 20.628906 C 40.714844 21.121094 40.636719 21.46875 40.480469 21.695312 Z M 40.480469 21.695312 "/>
</g>
</svg>
