<svg width="72" height="72" viewBox="0 0 72 72" fill="none" xmlns="http://www.w3.org/2000/svg">
<path d="M52.625 9.5V2M18.875 9.5V2M2.9375 20.75H68.5625M2 28.415C2 20.4837 2 16.5163 3.635 13.4863C5.11342 10.7836 7.40748 8.61689 10.19 7.295C13.4 5.75 17.6 5.75 26 5.75H45.5C53.9 5.75 58.1 5.75 61.31 7.295C64.1338 8.6525 66.425 10.82 67.865 13.4825C69.5 16.52 69.5 20.4875 69.5 28.4188V46.8387C69.5 54.77 69.5 58.7375 67.865 61.7675C66.3866 64.4701 64.0925 66.6369 61.31 67.9588C58.1 69.5 53.9 69.5 45.5 69.5H26C17.6 69.5 13.4 69.5 10.19 67.955C7.40804 66.6341 5.11404 64.4687 3.635 61.7675C2 58.73 2 54.7625 2 46.8312V28.415Z" stroke="black" stroke-width="4" stroke-linecap="round" stroke-linejoin="round"/>
</svg>
