<svg width="78" height="48" viewBox="0 0 78 48" fill="none" xmlns="http://www.w3.org/2000/svg">
<path d="M65.25 39H72.75C75 39 76.5 37.5 76.5 35.25V24C76.5 20.625 73.875 17.625 70.875 16.875C64.125 15 54 12.75 54 12.75C54 12.75 49.125 7.5 45.75 4.125C43.875 2.625 41.625 1.5 39 1.5H12.75C10.5 1.5 8.625 3 7.5 4.875L2.25 15.75C1.75343 17.1983 1.5 18.7189 1.5 20.25V35.25C1.5 37.5 3 39 5.25 39H12.75" stroke="black" stroke-width="3" stroke-linecap="round" stroke-linejoin="round"/>
<path d="M20.25 46.5C24.3921 46.5 27.75 43.1421 27.75 39C27.75 34.8579 24.3921 31.5 20.25 31.5C16.1079 31.5 12.75 34.8579 12.75 39C12.75 43.1421 16.1079 46.5 20.25 46.5Z" stroke="black" stroke-width="3" stroke-linecap="round" stroke-linejoin="round"/>
<path d="M27.75 39H50.25" stroke="black" stroke-width="3" stroke-linecap="round" stroke-linejoin="round"/>
<path d="M57.75 46.5C61.8921 46.5 65.25 43.1421 65.25 39C65.25 34.8579 61.8921 31.5 57.75 31.5C53.6079 31.5 50.25 34.8579 50.25 39C50.25 43.1421 53.6079 46.5 57.75 46.5Z" stroke="black" stroke-width="3" stroke-linecap="round" stroke-linejoin="round"/>
</svg>
