<svg width="88" height="63" viewBox="0 0 88 63" fill="none" xmlns="http://www.w3.org/2000/svg">
<path d="M47.8333 2V10.3333M47.8333 52V60.3334M47.8333 27V35.3333M2 18.6667C5.31521 18.6667 8.49463 19.9836 10.8388 22.3278C13.183 24.672 14.5 27.8515 14.5 31.1667C14.5 34.4819 13.183 37.6613 10.8388 40.0055C8.49463 42.3497 5.31521 43.6667 2 43.6667V52C2 54.2102 2.87797 56.3298 4.44078 57.8926C6.00358 59.4554 8.1232 60.3334 10.3333 60.3334H77C79.2101 60.3334 81.3298 59.4554 82.8926 57.8926C84.4554 56.3298 85.3333 54.2102 85.3333 52V43.6667C82.0181 43.6667 78.8387 42.3497 76.4945 40.0055C74.1503 37.6613 72.8333 34.4819 72.8333 31.1667C72.8333 27.8515 74.1503 24.672 76.4945 22.3278C78.8387 19.9836 82.0181 18.6667 85.3333 18.6667V10.3333C85.3333 8.1232 84.4554 6.00358 82.8926 4.44078C81.3298 2.87797 79.2101 2 77 2H10.3333C8.1232 2 6.00358 2.87797 4.44078 4.44078C2.87797 6.00358 2 8.1232 2 10.3333V18.6667Z" stroke="black" stroke-width="4" stroke-linecap="round" stroke-linejoin="round"/>
</svg>
