<svg width="50" height="50" viewBox="0 0 50 50" fill="none" xmlns="http://www.w3.org/2000/svg">
<path d="M24.6562 29.9062L6.28125 48.2812C5.59375 48.9687 4.71875 49.3125 3.65625 49.3125C2.59375 49.3125 1.71875 48.9687 1.03125 48.2812C0.343749 47.5937 0 46.7187 0 45.6562C0 44.5937 0.343749 43.7187 1.03125 43.0312L19.4062 24.6562L1.03125 6.28125C0.343749 5.59375 0 4.71875 0 3.65625C0 2.59375 0.343749 1.71875 1.03125 1.03125C1.71875 0.343749 2.59375 0 3.65625 0C4.71875 0 5.59375 0.343749 6.28125 1.03125L24.6562 19.4062L43.0312 1.03125C43.7187 0.343749 44.5937 0 45.6562 0C46.7187 0 47.5937 0.343749 48.2812 1.03125C48.9687 1.71875 49.3125 2.59375 49.3125 3.65625C49.3125 4.71875 48.9687 5.59375 48.2812 6.28125L29.9062 24.6562L48.2812 43.0312C48.9687 43.7187 49.3125 44.5937 49.3125 45.6562C49.3125 46.7187 48.9687 47.5937 48.2812 48.2812C47.5937 48.9687 46.7187 49.3125 45.6562 49.3125C44.5937 49.3125 43.7187 48.9687 43.0312 48.2812L24.6562 29.9062Z" fill="black"/>
</svg>
