<svg width="60" height="71" viewBox="0 0 60 71" fill="none" xmlns="http://www.w3.org/2000/svg">
<path d="M20.5759 9C20.5759 10.9891 21.3661 12.8968 22.7726 14.3033C24.1792 15.7098 26.0868 16.5 28.0759 16.5C30.065 16.5 31.9727 15.7098 33.3792 14.3033C34.7857 12.8968 35.5759 10.9891 35.5759 9C35.5759 7.01088 34.7857 5.10322 33.3792 3.6967C31.9727 2.29018 30.065 1.5 28.0759 1.5C26.0868 1.5 24.1792 2.29018 22.7726 3.6967C21.3661 5.10322 20.5759 7.01088 20.5759 9Z" stroke="black" stroke-width="3" stroke-linecap="round" stroke-linejoin="round"/>
<path d="M28.076 16.5V46.5H43.076L58.076 65.25M28.076 31.5H46.826M13.076 33.375C10.3891 34.4877 7.99783 36.2102 6.0913 38.4063C4.18477 40.6023 2.8152 43.2118 2.09087 46.0283C1.36655 48.8448 1.30731 51.7913 1.91786 54.6346C2.5284 57.478 3.79198 60.1404 5.60871 62.4113C7.42544 64.6822 9.74551 66.4994 12.3855 67.7192C15.0255 68.939 17.9131 69.528 20.8199 69.4396C23.7268 69.3512 26.5732 68.5879 29.1342 67.2099C31.6952 65.8319 33.9006 63.8771 35.576 61.5" stroke="black" stroke-width="3" stroke-linecap="round" stroke-linejoin="round"/>
</svg>
