<svg width="45" height="45" viewBox="0 0 45 45" fill="none" xmlns="http://www.w3.org/2000/svg">
<path d="M23.9812 39.3748L5.625 21.0186V24.7686C5.625 25.7623 6.01875 26.7186 6.73125 27.4123L21.3375 42.0186C22.8 43.4811 25.1813 43.4811 26.6438 42.0186L38.2875 30.3748C39.75 28.9123 39.75 26.5311 38.2875 25.0686L23.9812 39.3748Z" fill="black"/>
<path d="M21.3375 32.6437C22.0688 33.375 23.025 33.75 23.9812 33.75C24.9375 33.75 25.8937 33.375 26.625 32.6437L38.2687 21C39.7312 19.5375 39.7312 17.1562 38.2687 15.6937L23.6625 1.0875C22.9687 0.39375 22.0125 0 21.0188 0H9.375C7.3125 0 5.625 1.6875 5.625 3.75V15.3938C5.625 16.3875 6.01875 17.3437 6.73125 18.0375L21.3375 32.6437ZM9.375 3.75H21.0188L35.625 18.3562L23.9812 30L9.375 15.3938V3.75Z" fill="black"/>
<path d="M13.5938 10.3125C14.8882 10.3125 15.9375 9.26317 15.9375 7.96875C15.9375 6.67433 14.8882 5.625 13.5938 5.625C12.2993 5.625 11.25 6.67433 11.25 7.96875C11.25 9.26317 12.2993 10.3125 13.5938 10.3125Z" fill="black"/>
</svg>
