<svg width="71" height="63" viewBox="0 0 71 63" fill="none" xmlns="http://www.w3.org/2000/svg">
<path d="M1.5 54V20.25C1.5 18.2609 2.29018 16.3532 3.6967 14.9467C5.10322 13.5402 7.01088 12.75 9 12.75H12.4875C13.7219 12.7502 14.9373 12.4457 16.0259 11.8635C17.1144 11.2813 18.0424 10.4394 18.7275 9.4125L21.7725 4.8375C22.4576 3.81063 23.3856 2.96874 24.4741 2.38654C25.5627 1.80433 26.7781 1.49982 28.0125 1.5H42.4875C43.7219 1.49982 44.9373 1.80433 46.0259 2.38654C47.1144 2.96874 48.0424 3.81063 48.7275 4.8375L51.7725 9.4125C52.4576 10.4394 53.3856 11.2813 54.4741 11.8635C55.5627 12.4457 56.7781 12.7502 58.0125 12.75H61.5C63.4891 12.75 65.3968 13.5402 66.8033 14.9467C68.2098 16.3532 69 18.2609 69 20.25V54C69 55.9891 68.2098 57.8968 66.8033 59.3033C65.3968 60.7098 63.4891 61.5 61.5 61.5H9C7.01088 61.5 5.10322 60.7098 3.6967 59.3033C2.29018 57.8968 1.5 55.9891 1.5 54Z" stroke="black" stroke-width="3" stroke-linecap="round" stroke-linejoin="round"/>
<path d="M35.25 46.5C41.4632 46.5 46.5 41.4632 46.5 35.25C46.5 29.0368 41.4632 24 35.25 24C29.0368 24 24 29.0368 24 35.25C24 41.4632 29.0368 46.5 35.25 46.5Z" stroke="black" stroke-width="3" stroke-linecap="round" stroke-linejoin="round"/>
</svg>
