<svg width="12" height="8" viewBox="0 0 12 8" fill="none" xmlns="http://www.w3.org/2000/svg">
<path d="M0.5 3.18198C0.223858 3.18198 2.7186e-08 3.40583 0 3.68198C-2.7186e-08 3.95812 0.223858 4.18198 0.5 4.18198L0.5 3.68198L0.5 3.18198ZM11.8536 4.03553C12.0488 3.84027 12.0488 3.52369 11.8536 3.32842L8.67157 0.146443C8.47631 -0.0488192 8.15973 -0.0488192 7.96447 0.146443C7.7692 0.341705 7.7692 0.658288 7.96447 0.85355L10.7929 3.68198L7.96447 6.5104C7.7692 6.70567 7.7692 7.02225 7.96447 7.21751C8.15973 7.41277 8.47631 7.41277 8.67157 7.21751L11.8536 4.03553ZM0.5 3.68198L0.5 4.18198L11.5 4.18198L11.5 3.68198L11.5 3.18198L0.5 3.18198L0.5 3.68198Z" fill="white"/>
</svg>
