<svg width="23" height="15" viewBox="0 0 23 15" fill="none" xmlns="http://www.w3.org/2000/svg">
<path d="M1 6.36395C0.447715 6.36395 5.43719e-08 6.81167 0 7.36395C-5.43719e-08 7.91624 0.447715 8.36395 1 8.36395L1 7.36395L1 6.36395ZM21.9774 8.07106C22.3679 7.68054 22.3679 7.04737 21.9774 6.65685L15.6134 0.292886C15.2229 -0.0976385 14.5897 -0.0976385 14.1992 0.292886C13.8087 0.68341 13.8087 1.31658 14.1992 1.7071L19.8561 7.36395L14.1992 13.0208C13.8087 13.4113 13.8087 14.0445 14.1992 14.435C14.5897 14.8255 15.2229 14.8255 15.6134 14.435L21.9774 8.07106ZM1 7.36395L1 8.36395L21.2703 8.36395L21.2703 7.36395L21.2703 6.36395L1 6.36395L1 7.36395Z" fill="white"/>
</svg>
