<svg width="68" height="45" viewBox="0 0 68 45" fill="none" xmlns="http://www.w3.org/2000/svg">
<path d="M3.75001 45C2.68751 45 1.79751 44.64 1.08001 43.92C0.362513 43.2 0.00251293 42.31 1.2931e-05 41.25C-0.00248707 40.19 0.357513 39.3 1.08001 38.58C1.80251 37.86 2.69251 37.5 3.75001 37.5H63.75C64.8125 37.5 65.7038 37.86 66.4238 38.58C67.1438 39.3 67.5025 40.19 67.5 41.25C67.4975 42.31 67.1375 43.2013 66.42 43.9238C65.7025 44.6463 64.8125 45.005 63.75 45H3.75001ZM3.75001 26.25C2.68751 26.25 1.79751 25.89 1.08001 25.17C0.362513 24.45 0.00251293 23.56 1.2931e-05 22.5C-0.00248707 21.44 0.357513 20.55 1.08001 19.83C1.80251 19.11 2.69251 18.75 3.75001 18.75H63.75C64.8125 18.75 65.7038 19.11 66.4238 19.83C67.1438 20.55 67.5025 21.44 67.5 22.5C67.4975 23.56 67.1375 24.4513 66.42 25.1738C65.7025 25.8963 64.8125 26.255 63.75 26.25H3.75001ZM3.75001 7.5C2.68751 7.5 1.79751 7.14 1.08001 6.42C0.362513 5.7 0.00251293 4.81 1.2931e-05 3.75C-0.00248707 2.69 0.357513 1.8 1.08001 1.08C1.80251 0.36 2.69251 0 3.75001 0H63.75C64.8125 0 65.7038 0.36 66.4238 1.08C67.1438 1.8 67.5025 2.69 67.5 3.75C67.4975 4.81 67.1375 5.70125 66.42 6.42375C65.7025 7.14625 64.8125 7.505 63.75 7.5H3.75001Z" fill="black"/>
</svg>
