<svg width="45" height="45" viewBox="0 0 45 45" fill="none" xmlns="http://www.w3.org/2000/svg">
<path d="M5.625 20.625H11.25C12.2446 20.625 13.1984 21.0201 13.9017 21.7234C14.6049 22.4266 15 23.3804 15 24.375V30C15 30.9946 14.6049 31.9484 13.9017 32.6516C13.1984 33.3549 12.2446 33.75 11.25 33.75H9.375C8.38044 33.75 7.42661 33.3549 6.72335 32.6516C6.02009 31.9484 5.625 30.9946 5.625 30V20.625ZM5.625 20.625C5.625 18.4089 6.06148 16.2146 6.90953 14.1672C7.75758 12.1198 9.00058 10.2596 10.5676 8.69257C12.1346 7.12558 13.9948 5.88258 16.0422 5.03453C18.0896 4.18648 20.2839 3.75 22.5 3.75C24.7161 3.75 26.9104 4.18648 28.9578 5.03453C31.0052 5.88258 32.8654 7.12558 34.4324 8.69257C35.9994 10.2596 37.2424 12.1198 38.0905 14.1672C38.9385 16.2146 39.375 18.4089 39.375 20.625M39.375 20.625V30C39.375 30.9946 38.9799 31.9484 38.2766 32.6516C37.5734 33.3549 36.6196 33.75 35.625 33.75H33.75C32.7554 33.75 31.8016 33.3549 31.0984 32.6516C30.3951 31.9484 30 30.9946 30 30V24.375C30 23.3804 30.3951 22.4266 31.0984 21.7234C31.8016 21.0201 32.7554 20.625 33.75 20.625H39.375Z" stroke="black" stroke-width="2" stroke-linecap="round" stroke-linejoin="round"/>
<path d="M39.375 30V33.75C39.375 35.7391 38.5848 37.6468 37.1783 39.0533C35.7718 40.4598 33.8641 41.25 31.875 41.25H22.5" stroke="black" stroke-width="2" stroke-linecap="round" stroke-linejoin="round"/>
</svg>
