<svg width="76" height="89" viewBox="0 0 76 89" fill="none" xmlns="http://www.w3.org/2000/svg">
<path d="M62.7792 12.2944C76.823 26.1063 76.823 48.2107 62.9665 61.8399L37.6833 86.7084L12.3911 61.8399C9.10184 58.6259 6.48816 54.7868 4.7037 50.5483C2.91924 46.3098 2 41.7573 2 37.1585C2 32.5597 2.91924 28.0073 4.7037 23.7687C6.48816 19.5302 9.10184 15.6912 12.3911 12.4772L12.5784 12.2944C19.2666 5.69811 28.2828 2 37.6766 2C47.0703 2 56.091 5.69811 62.7792 12.2944ZM62.7792 12.2944C62.592 12.1071 62.592 12.1071 62.7792 12.2944ZM46.5865 33.2084C46.5865 35.5733 45.6471 37.8413 43.9749 39.5135C42.3027 41.1857 40.0347 42.1251 37.6699 42.1251C35.305 42.1251 33.037 41.1857 31.3648 39.5135C29.6926 37.8413 28.7532 35.5733 28.7532 33.2084C28.7532 30.8436 29.6926 28.5756 31.3648 26.9034C33.037 25.2312 35.305 24.2918 37.6699 24.2918C40.0347 24.2918 42.3027 25.2312 43.9749 26.9034C45.6471 28.5756 46.5865 30.8436 46.5865 33.2084Z" stroke="#DE7533" stroke-width="4" stroke-miterlimit="10" stroke-linecap="round" stroke-linejoin="round"/>
</svg>
