<svg width="63" height="75" viewBox="0 0 63 75" fill="none" xmlns="http://www.w3.org/2000/svg">
<path d="M52.6227 10.1588C64.4352 21.7763 64.4352 40.3688 52.7802 51.8326L31.514 72.7501L10.2402 51.8326C7.47351 49.1292 5.27509 45.9001 3.77414 42.335C2.27319 38.7699 1.5 34.9408 1.5 31.0726C1.5 27.2044 2.27319 23.3753 3.77414 19.8102C5.27509 16.2451 7.47351 13.0159 10.2402 10.3126L10.3977 10.1588C16.0233 4.61056 23.607 1.5 31.5083 1.5C39.4096 1.5 46.9971 4.61056 52.6227 10.1588ZM52.6227 10.1588C52.4652 10.0013 52.4652 10.0013 52.6227 10.1588ZM39.0027 27.7501C39.0027 29.7392 38.2125 31.6469 36.806 33.0534C35.3995 34.4599 33.4918 35.2501 31.5027 35.2501C29.5136 35.2501 27.6059 34.4599 26.1994 33.0534C24.7929 31.6469 24.0027 29.7392 24.0027 27.7501C24.0027 25.761 24.7929 23.8533 26.1994 22.4468C27.6059 21.0403 29.5136 20.2501 31.5027 20.2501C33.4918 20.2501 35.3995 21.0403 36.806 22.4468C38.2125 23.8533 39.0027 25.761 39.0027 27.7501Z" stroke="black" stroke-width="3" stroke-miterlimit="10" stroke-linecap="round" stroke-linejoin="round"/>
</svg>
