<svg width="75" height="75" viewBox="0 0 75 75" fill="none" xmlns="http://www.w3.org/2000/svg">
<path d="M37.5 56.25C38.5625 56.25 39.4538 55.89 40.1738 55.17C40.8938 54.45 41.2525 53.56 41.25 52.5V37.5C41.25 36.4375 40.89 35.5475 40.17 34.83C39.45 34.1125 38.56 33.7525 37.5 33.75C36.44 33.7475 35.55 34.1075 34.83 34.83C34.11 35.5525 33.75 36.4425 33.75 37.5V52.5C33.75 53.5625 34.11 54.4538 34.83 55.1738C35.55 55.8938 36.44 56.2525 37.5 56.25ZM37.5 26.25C38.5625 26.25 39.4538 25.89 40.1738 25.17C40.8938 24.45 41.2525 23.56 41.25 22.5C41.2475 21.44 40.8875 20.55 40.17 19.83C39.4525 19.11 38.5625 18.75 37.5 18.75C36.4375 18.75 35.5475 19.11 34.83 19.83C34.1125 20.55 33.7525 21.44 33.75 22.5C33.7475 23.56 34.1075 24.4513 34.83 25.1738C35.5525 25.8963 36.4425 26.255 37.5 26.25ZM37.5 75C32.3125 75 27.4375 74.015 22.875 72.045C18.3125 70.075 14.3438 67.4038 10.9688 64.0313C7.59376 60.6588 4.92251 56.69 2.95501 52.125C0.987505 47.56 0.00250475 42.685 4.74683e-06 37.5C-0.00249525 32.315 0.982505 27.44 2.95501 22.875C4.92751 18.31 7.59876 14.3413 10.9688 10.9688C14.3388 7.59625 18.3075 4.925 22.875 2.955C27.4425 0.985 32.3175 0 37.5 0C42.6825 0 47.5575 0.985 52.125 2.955C56.6925 4.925 60.6613 7.59625 64.0313 10.9688C67.4013 14.3413 70.0738 18.31 72.0488 22.875C74.0238 27.44 75.0075 32.315 75 37.5C74.9925 42.685 74.0075 47.56 72.045 52.125C70.0825 56.69 67.4113 60.6588 64.0313 64.0313C60.6513 67.4038 56.6825 70.0763 52.125 72.0488C47.5675 74.0213 42.6925 75.005 37.5 75ZM37.5 67.5C45.875 67.5 52.9688 64.5938 58.7813 58.7813C64.5938 52.9688 67.5 45.875 67.5 37.5C67.5 29.125 64.5938 22.0313 58.7813 16.2188C52.9688 10.4063 45.875 7.5 37.5 7.5C29.125 7.5 22.0313 10.4063 16.2188 16.2188C10.4063 22.0313 7.5 29.125 7.5 37.5C7.5 45.875 10.4063 52.9688 16.2188 58.7813C22.0313 64.5938 29.125 67.5 37.5 67.5Z" fill="black"/>
</svg>
