<svg width="120" height="45" viewBox="0 0 120 45" fill="none" xmlns="http://www.w3.org/2000/svg">
<g clip-path="url(#clip0_102_2)">
<path d="M14.788 10.0386C13.4216 10.0386 12.3125 11.154 12.3125 12.528C12.3125 13.902 13.4216 15.0174 14.788 15.0174V19.9962H9.90194V17.5068C9.90194 16.1328 8.79278 15.0174 7.42645 15.0174C6.06013 15.0174 4.95097 16.1328 4.95097 17.5068V19.9962H2.47548C1.10916 19.9962 0 21.1116 0 22.4856C0 23.8596 1.10916 24.975 2.47548 24.975H4.95097V27.4644C4.95097 28.8384 6.06013 29.9538 7.42645 29.9538C8.79278 29.9538 9.90194 28.8384 9.90194 27.4644V24.975H14.788V29.9565C13.4502 29.9904 12.3748 31.0901 12.3748 32.4432C12.3748 33.7964 13.4502 34.8961 14.788 34.93V44.9608H19.9234V0H14.788V10.0386Z" fill="#1D1D1B"/>
<path d="M30.1604 4.87956L32.8956 9.72776H34.2567L37.0257 4.87956V12.6795H39.3038V1.071H36.6491L33.6151 6.58008L30.6045 1.071H27.8927V12.6795H30.1604V4.87956Z" fill="#1D1D1B"/>
<path d="M44.3561 12.9381C44.8627 12.9381 45.3874 12.8075 45.9355 12.5489C46.4836 12.2877 46.9485 11.9533 47.3252 11.5458V12.6795H49.476V3.8817H47.3252V9.76171C46.429 10.6054 45.6627 11.0286 45.0211 11.0286C44.7042 11.0286 44.4652 10.9659 44.299 10.8405C44.1353 10.7152 44.0185 10.4879 43.9431 10.1561C43.873 9.82702 43.8366 9.3516 43.8366 8.7299V3.8817H41.6858V9.76171C41.6858 10.7805 41.8833 11.5641 42.2781 12.1153C42.6729 12.6665 43.3665 12.9407 44.3535 12.9407L44.3561 12.9381Z" fill="#1D1D1B"/>
<path d="M54.9308 11.1697C54.5412 11.1697 54.1749 11.1096 53.8346 10.9894C53.4917 10.8693 53.1904 10.6316 52.9281 10.2711L51.328 11.4048C51.9904 12.4287 53.2346 12.9407 55.0633 12.9407C55.7516 12.9407 56.3647 12.8336 56.9024 12.6142C57.4401 12.3948 57.8557 12.0813 58.1466 11.666C58.4401 11.2506 58.5856 10.7543 58.5856 10.1744C58.5856 9.64677 58.4765 9.20531 58.2557 8.84483C58.0349 8.48696 57.7128 8.18134 57.2868 7.94102C56.8608 7.69808 56.1517 7.45254 55.1568 7.20699C54.549 7.05549 54.1437 6.91182 53.9385 6.77337C53.7333 6.63754 53.6294 6.45469 53.6294 6.22481C53.6294 5.98188 53.7437 5.78858 53.9723 5.63446C54.1983 5.48034 54.536 5.40459 54.9828 5.40459C55.8503 5.40459 56.4764 5.69977 56.8582 6.29273L58.4687 5.14337C58.1466 4.63922 57.6868 4.26046 57.0894 4.00969C56.4893 3.75631 55.801 3.63092 55.0165 3.63092C53.8658 3.63092 52.9956 3.88169 52.4034 4.38584C51.8111 4.88738 51.515 5.52736 51.515 6.30579C51.515 7.08422 51.7514 7.66412 52.2241 8.13432C52.6969 8.60451 53.5125 8.9676 54.6762 9.22621C55.2919 9.37771 55.7464 9.524 56.0348 9.66505C56.3231 9.80872 56.4686 10.0099 56.4686 10.2737C56.4686 10.8719 55.9568 11.1723 54.936 11.1723L54.9308 11.1697Z" fill="#1D1D1B"/>
<path d="M64.3054 12.9381C65.2717 12.9381 66.0354 12.8127 66.5938 12.5594C67.1523 12.306 67.6069 11.9298 67.9576 11.4204L66.3549 10.2685C66.1159 10.5715 65.8379 10.7752 65.5158 10.8797C65.1963 10.9868 64.8249 11.0417 64.4041 11.0417C63.6742 11.0417 63.1417 10.8693 62.8014 10.5271C62.4637 10.1875 62.2715 9.62588 62.2325 8.84222H68.0459V7.77645C68.0459 6.42596 67.7186 5.39415 67.0666 4.68625C66.412 3.97835 65.4613 3.6257 64.2171 3.6257C61.4143 3.6257 60.0142 5.20085 60.0142 8.34591C60.0142 9.88448 60.3701 11.0312 61.0792 11.7914C61.7857 12.5541 62.8611 12.9329 64.3028 12.9329L64.3054 12.9381ZM62.6403 6.13078C62.7858 5.86956 62.9832 5.67626 63.2274 5.54304C63.4716 5.41243 63.7859 5.34713 64.1703 5.34713C65.3314 5.34713 65.9133 6.01585 65.9133 7.35067H62.2949C62.378 6.79689 62.4949 6.392 62.6403 6.13078Z" fill="#1D1D1B"/>
<path d="M73.7554 12.9381C75.2023 12.9381 76.2621 12.5306 76.9349 11.7182C77.605 10.9032 77.9427 9.76693 77.9427 8.29889C77.9427 6.83084 77.605 5.66059 76.9349 4.8482C76.2621 4.03581 75.2023 3.62831 73.7554 3.62831C72.3086 3.62831 71.2358 4.03581 70.563 4.8482C69.8902 5.66059 69.5526 6.81256 69.5526 8.29889C69.5526 11.3917 70.9526 12.9381 73.7554 12.9381ZM72.2358 6.20131C72.5476 5.74679 73.0541 5.51692 73.7528 5.51692C74.4516 5.51692 74.9633 5.73895 75.2646 6.18302C75.5633 6.62709 75.7166 7.33499 75.7166 8.3015C75.7166 9.26801 75.5633 9.94717 75.2568 10.386C74.9529 10.8223 74.4516 11.0443 73.7554 11.0443C73.0593 11.0443 72.5424 10.8223 72.2358 10.3756C71.9267 9.9315 71.7709 9.23927 71.7709 8.29889C71.7709 7.3585 71.9267 6.65583 72.2384 6.19869L72.2358 6.20131Z" fill="#1D1D1B"/>
<path d="M86.9823 12.9381C87.5486 12.9381 88.0525 12.8362 88.4993 12.6377C88.9435 12.434 89.3669 12.1649 89.7669 11.8227V12.6795H91.7436V0.190689H89.5928V4.53474C89.3097 4.27352 88.9486 4.05671 88.5174 3.88431C88.0837 3.71452 87.6603 3.62832 87.2498 3.62832C86.0887 3.62832 85.1874 4.04365 84.5432 4.8691C83.899 5.69716 83.5795 6.85697 83.5795 8.34852C83.5795 9.84007 83.873 10.9372 84.4575 11.7365C85.0419 12.5358 85.8835 12.9355 86.9849 12.9355L86.9823 12.9381ZM86.3251 6.2849C86.6758 5.78597 87.1407 5.53521 87.7174 5.53521C88.0681 5.53521 88.411 5.61357 88.7486 5.77553C89.0863 5.93487 89.3669 6.11772 89.5954 6.32408V10.1744C89.3357 10.4148 89.0188 10.6159 88.6499 10.7831C88.2785 10.9476 87.9148 11.0286 87.5615 11.0286C86.9615 11.0286 86.5173 10.7883 86.2316 10.3077C85.9459 9.82701 85.8004 9.16352 85.8004 8.31979C85.8004 7.47605 85.977 6.78644 86.3277 6.28751L86.3251 6.2849Z" fill="#1D1D1B"/>
<path d="M101.672 11.4231L100.069 10.2711C99.8299 10.5741 99.552 10.7778 99.2299 10.8823C98.9104 10.9894 98.5389 11.0443 98.1181 11.0443C97.3882 11.0443 96.8557 10.8719 96.5154 10.5297C96.1777 10.1901 95.9855 9.62849 95.9465 8.84483H101.76V7.77907C101.76 6.42857 101.433 5.39676 100.781 4.68886C100.126 3.98096 99.1753 3.62831 97.9311 3.62831C95.1283 3.62831 93.7282 5.20346 93.7282 8.34852C93.7282 9.88709 94.0841 11.0338 94.7932 11.794C95.4998 12.5567 96.5752 12.9355 98.0168 12.9355C98.9831 12.9355 99.7468 12.8101 100.305 12.5567C100.864 12.3034 101.318 11.9272 101.669 11.4178L101.672 11.4231ZM96.3544 6.13078C96.4998 5.86956 96.6972 5.67626 96.9414 5.54304C97.1856 5.40982 97.4999 5.34713 97.8843 5.34713C99.0454 5.34713 99.6273 6.01584 99.6273 7.35067H96.0089C96.092 6.79689 96.2089 6.392 96.3544 6.13078Z" fill="#1D1D1B"/>
<path d="M105.854 0.190689H103.703V12.6795H105.854V0.190689Z" fill="#1D1D1B"/>
<path d="M110.433 0.190689H108.282V12.6795H110.433V0.190689Z" fill="#1D1D1B"/>
<path d="M119.096 4.34666C118.491 3.87124 117.509 3.63092 116.148 3.63092C115.257 3.63092 114.498 3.76414 113.87 4.02797C113.244 4.2918 112.781 4.67579 112.485 5.17211L114.163 6.25355C114.324 5.9636 114.574 5.73895 114.909 5.58483C115.246 5.4281 115.646 5.34973 116.114 5.34973C116.683 5.34973 117.111 5.43855 117.407 5.6214C117.704 5.80425 117.849 6.13861 117.849 6.63231V7.02675L116.007 7.20438C115.072 7.29842 114.358 7.46299 113.859 7.69547C113.36 7.92796 112.984 8.24664 112.732 8.65414C112.477 9.06425 112.353 9.57885 112.353 10.2058C112.353 11.0077 112.599 11.6608 113.096 12.1727C113.589 12.6847 114.322 12.9381 115.288 12.9381C116.254 12.9381 117.174 12.5463 118.026 11.7652V12.6795H120.002V6.69762C120.002 5.60834 119.701 4.82469 119.099 4.34405L119.096 4.34666ZM117.849 10.2711C117.488 10.5741 117.119 10.8066 116.743 10.9738C116.366 11.1383 116.049 11.2193 115.789 11.2193C115.423 11.2193 115.127 11.1462 114.906 10.9973C114.685 10.8484 114.571 10.5741 114.571 10.1718C114.571 9.71469 114.742 9.36727 115.083 9.14001C115.426 8.91014 115.981 8.76124 116.755 8.69332L117.846 8.59406V10.2711H117.849Z" fill="#1D1D1B"/>
<path d="M34.3866 26.464C34.0048 26.7252 33.4723 26.8584 32.7891 26.8584C31.7735 26.8584 31.0306 26.5319 30.5656 25.8789C30.1006 25.2232 29.8695 24.2332 29.8695 22.9088C29.8695 21.4878 30.1162 20.4769 30.6124 19.8682C31.1059 19.2622 31.828 18.9592 32.7735 18.9592C33.1684 18.9592 33.5061 19.0036 33.7892 19.0924C34.0723 19.1812 34.3269 19.3145 34.5503 19.4947C34.7711 19.6749 35.0178 19.9649 35.2828 20.3672L37.1089 18.9409C36.7374 18.3192 36.1945 17.8177 35.4828 17.4363C34.7711 17.0523 33.8515 16.8616 32.7216 16.8616C31.015 16.8616 29.7058 17.3553 28.8019 18.3375C27.8953 19.3223 27.4433 20.8478 27.4433 22.9088C27.4433 26.9394 29.2305 28.956 32.8047 28.956C33.8567 28.956 34.7425 28.781 35.462 28.431C36.1815 28.0809 36.7894 27.535 37.2829 26.7931L35.4231 25.4165C35.1113 25.8527 34.7659 26.2028 34.3866 26.4666V26.464Z" fill="#1D1D1B"/>
<path d="M45.2056 20.3776C44.6003 19.9022 43.6184 19.6619 42.2573 19.6619C41.3663 19.6619 40.6078 19.7951 39.9792 20.0589C39.3532 20.3228 38.8908 20.7068 38.5947 21.2031L40.2728 22.2845C40.4338 21.9946 40.6832 21.7699 41.0183 21.6158C41.3559 21.4591 41.756 21.3807 42.2235 21.3807C42.7924 21.3807 43.221 21.4695 43.5171 21.6524C43.8133 21.8352 43.9587 22.1696 43.9587 22.6633V23.0577L42.117 23.2353C41.1819 23.3294 40.4676 23.4939 39.9688 23.7264C39.4701 23.9589 39.0935 24.2776 38.8415 24.6851C38.5869 25.0952 38.4622 25.6098 38.4622 26.2367C38.4622 27.0387 38.709 27.6917 39.2052 28.2037C39.6987 28.7157 40.4312 28.9691 41.3975 28.9691C42.3638 28.9691 43.2833 28.5773 44.1354 27.7962V28.7105H46.1121V22.7286C46.1121 21.6393 45.8108 20.8556 45.2082 20.375L45.2056 20.3776ZM43.9561 26.302C43.5951 26.6051 43.2262 26.8375 42.8496 27.0047C42.4729 27.1693 42.156 27.2503 41.8962 27.2503C41.53 27.2503 41.2339 27.1771 41.0131 27.0282C40.7923 26.8793 40.678 26.6051 40.678 26.2028C40.678 25.7456 40.8494 25.3982 41.1897 25.171C41.5326 24.9411 42.0885 24.7922 42.8625 24.7243L43.9535 24.625V26.302H43.9561Z" fill="#1D1D1B"/>
<path d="M48.4603 17.4624V19.9126H47.3511V21.6314H48.4603V26.0513C48.4603 27.0805 48.6811 27.8249 49.1253 28.2821C49.5695 28.7392 50.2968 28.9691 51.3124 28.9691C51.9514 28.9691 52.5593 28.8829 53.1359 28.7078L52.7593 26.9368C52.3696 27.1013 51.9774 27.1797 51.5852 27.1797C51.2735 27.1797 51.0345 27.0804 50.8631 26.8845C50.6916 26.6886 50.6059 26.3177 50.6059 25.7691V21.6262H52.6398V19.9074H50.6059V17.4572H48.4551L48.4603 17.4624Z" fill="#1D1D1B"/>
<path d="M58.9259 26.9394C58.5363 27.104 58.144 27.1823 57.7518 27.1823C57.4401 27.1823 57.2011 27.0831 57.0297 26.8872C56.8582 26.6913 56.7725 26.3203 56.7725 25.7718V21.6288H58.8064V19.91H56.7725V17.4598H54.6217V19.91H53.5126V21.6288H54.6217V26.0487C54.6217 27.0779 54.8425 27.8223 55.2867 28.2795C55.7309 28.7366 56.4582 28.9665 57.4739 28.9665C58.1129 28.9665 58.7207 28.8803 59.2973 28.7052L58.9207 26.9342L58.9259 26.9394Z" fill="#1D1D1B"/>
<path d="M67.9576 27.454L66.3549 26.302C66.1159 26.605 65.8379 26.8088 65.5158 26.9133C65.1963 27.0204 64.8249 27.0752 64.4041 27.0752C63.6742 27.0752 63.1417 26.9028 62.8014 26.5606C62.4637 26.2211 62.2715 25.6594 62.2325 24.8758H68.0459V23.81C68.0459 22.4595 67.7186 21.4277 67.0666 20.7198C66.412 20.0119 65.4613 19.6593 64.2171 19.6593C61.4143 19.6593 60.0142 21.2344 60.0142 24.3795C60.0142 25.918 60.3701 27.0648 61.0792 27.8249C61.7857 28.5877 62.8611 28.9665 64.3028 28.9665C65.2691 28.9665 66.0328 28.8411 66.5912 28.5877C67.1497 28.3343 67.6043 27.9582 67.955 27.4488L67.9576 27.454ZM62.6403 22.1617C62.7858 21.9005 62.9832 21.7072 63.2274 21.574C63.4716 21.4434 63.7859 21.3781 64.1703 21.3781C65.3314 21.3781 65.9133 22.0468 65.9133 23.3816H62.2949C62.378 22.8278 62.4949 22.4229 62.6403 22.1617Z" fill="#1D1D1B"/>
<path d="M72.9554 28.9691C73.5216 28.9691 74.0256 28.8672 74.4723 28.6687C74.9165 28.4649 75.3399 28.1958 75.74 27.8537V28.7104H77.7167V16.2216H75.5659V20.5657C75.2828 20.3045 74.9217 20.0876 74.4905 19.9152C74.0567 19.7454 73.6333 19.6592 73.2229 19.6592C72.0618 19.6592 71.1604 20.0746 70.5162 20.9C69.8721 21.7281 69.5526 22.8879 69.5526 24.3795C69.5526 25.871 69.8461 26.9681 70.4305 27.7674C71.015 28.5668 71.8566 28.9664 72.958 28.9664L72.9554 28.9691ZM72.2956 22.3158C72.6463 21.8169 73.1112 21.5661 73.6879 21.5661C74.0385 21.5661 74.3814 21.6445 74.7191 21.8065C75.0568 21.9658 75.3373 22.1487 75.5659 22.355V26.2054C75.3062 26.4457 74.9893 26.6468 74.6204 26.814C74.249 26.9786 73.8853 27.0595 73.532 27.0595C72.932 27.0595 72.4878 26.8192 72.2021 26.3386C71.9163 25.8579 71.7709 25.1945 71.7709 24.3507C71.7709 23.507 71.9475 22.8174 72.2982 22.3184L72.2956 22.3158Z" fill="#1D1D1B"/>
<path d="M83.4808 20.1713C83.0574 20.4325 82.6626 20.7668 82.2963 21.1691V19.91H80.1456V28.7079H82.2963V22.9872C82.673 22.6189 83.0418 22.3367 83.4029 22.1434C83.7614 21.9501 84.1406 21.8535 84.5406 21.8535C84.9095 21.8535 85.203 21.911 85.4264 22.0207L85.8498 19.9492C85.6628 19.8317 85.3433 19.7742 84.8991 19.7742C84.377 19.7742 83.9042 19.9048 83.4808 20.1686V20.1713Z" fill="#1D1D1B"/>
<path d="M93.2163 20.3776C92.6111 19.9022 91.6292 19.6619 90.2681 19.6619C89.3771 19.6619 88.6186 19.7951 87.99 20.0589C87.364 20.3228 86.9016 20.7068 86.6055 21.2031L88.2836 22.2845C88.4446 21.9946 88.694 21.7699 89.0291 21.6158C89.3667 21.4591 89.7668 21.3807 90.2343 21.3807C90.8032 21.3807 91.2318 21.4695 91.5279 21.6524C91.824 21.8352 91.9695 22.1696 91.9695 22.6633V23.0577L90.1278 23.2353C89.1927 23.3294 88.4784 23.4939 87.9796 23.7264C87.4809 23.9589 87.1043 24.2776 86.8523 24.6851C86.5977 25.0952 86.473 25.6098 86.473 26.2367C86.473 27.0387 86.7198 27.6917 87.216 28.2037C87.7095 28.7157 88.442 28.9691 89.4083 28.9691C90.3746 28.9691 91.2941 28.5773 92.1461 27.7962V28.7105H94.1229V22.7286C94.1229 21.6393 93.8216 20.8556 93.2189 20.375L93.2163 20.3776ZM91.9695 26.302C91.6085 26.6051 91.2396 26.8375 90.8629 27.0047C90.4863 27.1693 90.1694 27.2503 89.9096 27.2503C89.5434 27.2503 89.2473 27.1771 89.0265 27.0282C88.8057 26.8793 88.6914 26.6051 88.6914 26.2028C88.6914 25.7456 88.8628 25.3982 89.2031 25.171C89.546 24.9411 90.1019 24.7922 90.8759 24.7243L91.9669 24.625V26.302H91.9695Z" fill="#1D1D1B"/>
<path d="M98.6323 16.2216H96.4815V28.7104H98.6323V16.2216Z" fill="#1D1D1B"/>
<path d="M104.82 19.6619C102.017 19.6619 100.617 21.237 100.617 24.3821C100.617 25.9207 100.973 27.0674 101.682 27.8275C102.388 28.5903 103.464 28.9691 104.906 28.9691C105.872 28.9691 106.635 28.8437 107.194 28.5903C107.752 28.3395 108.207 27.9608 108.558 27.4514L106.955 26.2994C106.716 26.6024 106.438 26.8062 106.116 26.9107C105.796 27.0178 105.425 27.0726 105.004 27.0726C104.274 27.0726 103.742 26.9002 103.402 26.558C103.064 26.2184 102.872 25.6568 102.833 24.8732H108.646V23.8074C108.646 22.4569 108.319 21.4251 107.667 20.7172C107.012 20.0093 106.061 19.6566 104.817 19.6566L104.82 19.6619ZM102.895 23.3842C102.978 22.8304 103.095 22.4256 103.24 22.1643C103.386 21.9031 103.583 21.7098 103.828 21.5766C104.072 21.446 104.386 21.3807 104.77 21.3807C105.932 21.3807 106.513 22.0494 106.513 23.3842H102.895Z" fill="#1D1D1B"/>
<path d="M33.423 36.5966C33.1398 36.3354 32.7788 36.1186 32.3476 35.9462C31.9138 35.7764 31.4904 35.6902 31.08 35.6902C29.9189 35.6902 29.0175 36.1055 28.3733 36.931C27.7291 37.759 27.4096 38.9188 27.4096 40.4104C27.4096 41.9019 27.7031 42.9991 28.2876 43.7984C28.872 44.5977 29.7136 44.9974 30.815 44.9974C31.3813 44.9974 31.8852 44.8955 32.332 44.697C32.7762 44.4932 33.1996 44.2242 33.5996 43.882V44.7388H35.5764V32.2499H33.4256V36.594L33.423 36.5966ZM33.423 42.2337C33.1632 42.474 32.8463 42.6751 32.4775 42.8423C32.106 43.0069 31.7423 43.0879 31.3891 43.0879C30.789 43.0879 30.3449 42.8475 30.0591 42.3669C29.7734 41.8863 29.6279 41.2228 29.6279 40.379C29.6279 39.5353 29.8046 38.8457 30.1552 38.3468C30.5059 37.8478 30.9709 37.5971 31.5475 37.5971C31.8982 37.5971 32.2411 37.6754 32.5788 37.8374C32.9165 37.9967 33.197 38.1796 33.4256 38.3859V42.2363L33.423 42.2337Z" fill="#1D1D1B"/>
<path d="M40.1507 35.9436H37.9999V44.7414H40.1507V35.9436Z" fill="#1D1D1B"/>
<path d="M39.0596 32.4459C38.631 32.4459 38.3297 32.5321 38.1505 32.7019C37.9712 32.8716 37.8829 33.1538 37.8829 33.5456C37.8829 33.8982 37.966 34.1699 38.1297 34.3606C38.2933 34.5487 38.6024 34.6427 39.0596 34.6427C39.4726 34.6427 39.7765 34.5617 39.9766 34.3998C40.1766 34.2352 40.2753 33.9505 40.2753 33.543C40.2753 33.1355 40.1818 32.856 39.9922 32.6914C39.8025 32.5268 39.4908 32.4459 39.057 32.4459H39.0596Z" fill="#1D1D1B"/>
<path d="M53.6892 40.959L49.7772 33.1355H46.7251V44.7414H49.0265V36.4477L53.2294 44.7414H56.001V33.1355H53.6892V40.959Z" fill="#1D1D1B"/>
<path d="M62.2093 35.6928C60.7547 35.6928 59.6897 36.1003 59.0169 36.9127C58.3441 37.7251 58.0064 38.877 58.0064 40.3634C58.0064 43.4562 59.4065 45.0026 62.2093 45.0026C63.6562 45.0026 64.716 44.5951 65.3887 43.7827C66.0589 42.9677 66.3966 41.8314 66.3966 40.3634C66.3966 38.8953 66.0589 37.7251 65.3887 36.9127C64.716 36.1003 63.6562 35.6928 62.2093 35.6928ZM63.7133 42.4479C63.4094 42.8841 62.9081 43.1061 62.2119 43.1061C61.5158 43.1061 60.9988 42.8841 60.6923 42.4374C60.3832 41.9934 60.2274 41.3011 60.2274 40.3607C60.2274 39.4204 60.3832 38.7177 60.6949 38.2606C61.0066 37.806 61.5132 37.5762 62.2119 37.5762C62.9107 37.5762 63.4224 37.7982 63.7237 38.2423C64.0224 38.6863 64.1757 39.3942 64.1757 40.3607C64.1757 41.3272 64.0224 42.0064 63.7159 42.4453L63.7133 42.4479Z" fill="#1D1D1B"/>
<path d="M71.6619 43.2159C71.3502 43.2159 71.1112 43.1166 70.9398 42.9207C70.7683 42.7248 70.6826 42.3539 70.6826 41.8053V37.6624H72.7165V35.9436H70.6826V33.4933H68.5318V35.9436H67.4226V37.6624H68.5318V42.0822C68.5318 43.1114 68.7526 43.8559 69.1968 44.313C69.641 44.7701 70.3683 45 71.3839 45C72.0229 45 72.6308 44.9138 73.2074 44.7388L72.8308 42.9677C72.4411 43.1323 72.0489 43.2107 71.6567 43.2107L71.6619 43.2159Z" fill="#1D1D1B"/>
<path d="M78.1322 35.6928C76.6776 35.6928 75.6126 36.1003 74.9398 36.9127C74.267 37.7251 73.9294 38.877 73.9294 40.3634C73.9294 43.4562 75.3295 45.0026 78.1322 45.0026C79.5791 45.0026 80.6389 44.5951 81.3117 43.7827C81.9818 42.9677 82.3195 41.8314 82.3195 40.3634C82.3195 38.8953 81.9818 37.7251 81.3117 36.9127C80.6389 36.1003 79.5791 35.6928 78.1322 35.6928ZM79.6336 42.4479C79.3297 42.8841 78.8284 43.1061 78.1322 43.1061C77.4361 43.1061 76.9192 42.8841 76.6127 42.4374C76.3035 41.9934 76.1477 41.3011 76.1477 40.3607C76.1477 39.4204 76.3036 38.7177 76.6153 38.2606C76.927 37.806 77.4335 37.5762 78.1322 37.5762C78.831 37.5762 79.3427 37.7982 79.644 38.2423C79.9427 38.6863 80.096 39.3942 80.096 40.3607C80.096 41.3272 79.9427 42.0064 79.6362 42.4453L79.6336 42.4479Z" fill="#1D1D1B"/>
</g>
<defs>
<clipPath id="clip0_102_2">
<rect width="120" height="45" fill="white"/>
</clipPath>
</defs>
</svg>
