<svg width="163" height="61" viewBox="0 0 163 61" fill="none" xmlns="http://www.w3.org/2000/svg">
<g clip-path="url(#clip0_160_41)">
<path d="M20.087 13.6079C18.2311 13.6079 16.7245 15.1199 16.7245 16.9824C16.7245 18.845 18.2311 20.3569 20.087 20.3569V27.106H13.4501V23.7315C13.4501 21.8689 11.9435 20.3569 10.0876 20.3569C8.23168 20.3569 6.72507 21.8689 6.72507 23.7315V27.106H3.36253C1.50661 27.106 0 28.618 0 30.4805C0 32.3431 1.50661 33.8551 3.36253 33.8551H6.72507V37.2296C6.72507 39.0921 8.23168 40.6041 10.0876 40.6041C11.9435 40.6041 13.4501 39.0921 13.4501 37.2296V33.8551H20.087V40.6077C18.2699 40.6537 16.8091 42.1444 16.8091 43.9786C16.8091 45.8129 18.2699 47.3036 20.087 47.3496V60.9469H27.0626V0H20.087V13.6079Z" fill="white"/>
<path d="M40.9679 6.61437L44.6832 13.1864H46.5321L50.2934 6.61437V17.1877H53.3877V1.45166H49.7817L45.6606 8.91953L41.5712 1.45166H37.8876V17.1877H40.9679V6.61437Z" fill="white"/>
<path d="M60.2504 17.5382C60.9384 17.5382 61.6512 17.3612 62.3957 17.0106C63.1401 16.6565 63.7717 16.2033 64.2833 15.6509V17.1876H67.2048V5.26172H64.2833V13.2324C63.066 14.3761 62.0252 14.9498 61.1537 14.9498C60.7232 14.9498 60.3986 14.8648 60.1728 14.6948C59.9505 14.5249 59.7917 14.2168 59.6894 13.7671C59.5941 13.3209 59.5447 12.6765 59.5447 11.8373V5.26172H56.6232V13.2324C56.6232 14.6134 56.8914 15.6757 57.4277 16.4228C57.964 17.1699 58.9061 17.5417 60.2469 17.5417L60.2504 17.5382Z" fill="white"/>
<path d="M74.6144 15.1411C74.0851 15.1411 73.5876 15.0596 73.1254 14.8967C72.6597 14.7339 72.2504 14.4116 71.894 13.923L69.7205 15.4598C70.6203 16.8478 72.3104 17.5418 74.7943 17.5418C75.7293 17.5418 76.562 17.3967 77.2924 17.0992C78.0228 16.8018 78.5873 16.3769 78.9825 15.8138C79.3812 15.2508 79.5788 14.5781 79.5788 13.792C79.5788 13.0767 79.4306 12.4783 79.1307 11.9896C78.8308 11.5045 78.3933 11.0902 77.8146 10.7644C77.236 10.4351 76.2727 10.1023 74.9214 9.76944C74.0957 9.56406 73.5453 9.36931 73.2665 9.18164C72.9878 8.99751 72.8467 8.74965 72.8467 8.43804C72.8467 8.10873 73.0019 7.8467 73.3124 7.63779C73.6194 7.42887 74.0781 7.32618 74.685 7.32618C75.8634 7.32618 76.7138 7.72631 77.2324 8.53011L79.42 6.97209C78.9825 6.28868 78.358 5.77524 77.5465 5.43531C76.7314 5.09184 75.7964 4.92188 74.7308 4.92188C73.1678 4.92188 71.9858 5.26181 71.1813 5.94521C70.3768 6.62507 69.9746 7.49261 69.9746 8.54781C69.9746 9.60301 70.2957 10.3891 70.9378 11.0265C71.58 11.6638 72.6879 12.156 74.2686 12.5066C75.1048 12.712 75.7223 12.9103 76.1139 13.1015C76.5056 13.2962 76.7032 13.5689 76.7032 13.9265C76.7032 14.7374 76.0081 15.1446 74.6214 15.1446L74.6144 15.1411Z" fill="white"/>
<path d="M87.3483 17.5385C88.6608 17.5385 89.6982 17.3686 90.4568 17.0251C91.2154 16.6816 91.8328 16.1717 92.3092 15.4812L90.1321 13.9197C89.8075 14.3304 89.43 14.6066 88.9925 14.7483C88.555 14.8899 88.0539 14.9678 87.4823 14.9678C86.4909 14.9678 85.7676 14.7341 85.3053 14.2702C84.8431 13.8064 84.5856 13.0486 84.5326 11.9863H92.4291V10.5416C92.4291 8.71094 91.9845 7.31226 91.0989 6.35267C90.2098 5.39307 88.9184 4.91504 87.2283 4.91504C83.4212 4.91504 81.5194 7.05023 81.5194 11.3135C81.5194 13.3992 82.0028 14.9536 82.966 15.9841C83.9258 17.018 85.3865 17.5315 87.3447 17.5315L87.3483 17.5385ZM85.0866 8.31081C85.2842 7.95672 85.5523 7.69469 85.884 7.5141C86.2157 7.33705 86.6426 7.24853 87.1648 7.24853C88.742 7.24853 89.5323 8.15501 89.5323 9.96444H84.6173C84.7302 9.21376 84.889 8.66491 85.0866 8.31081Z" fill="white"/>
<path d="M100.184 17.5384C102.15 17.5384 103.589 16.986 104.503 15.8848C105.414 14.78 105.872 13.2397 105.872 11.2497C105.872 9.25967 105.414 7.67332 104.503 6.57208C103.589 5.47085 102.15 4.91846 100.184 4.91846C98.2192 4.91846 96.762 5.47085 95.8481 6.57208C94.9343 7.67332 94.4756 9.23488 94.4756 11.2497C94.4756 15.4422 96.3774 17.5384 100.184 17.5384ZM98.1204 8.4063C98.5438 7.79017 99.2318 7.47857 100.181 7.47857C101.13 7.47857 101.825 7.77955 102.234 8.38151C102.64 8.98347 102.848 9.94307 102.848 11.2532C102.848 12.5634 102.64 13.484 102.224 14.0789C101.811 14.6702 101.13 14.9712 100.184 14.9712C99.2389 14.9712 98.5367 14.6702 98.1204 14.0647C97.7005 13.4628 97.4888 12.5244 97.4888 11.2497C97.4888 9.97494 97.7005 9.02242 98.1239 8.40275L98.1204 8.4063Z" fill="white"/>
<path d="M118.151 17.5382C118.92 17.5382 119.605 17.4001 120.211 17.1309C120.815 16.8547 121.39 16.49 121.933 16.0262V17.1876H124.618V0.258301H121.697V6.14691C121.312 5.79281 120.822 5.49891 120.236 5.26521C119.647 5.03505 119.072 4.91819 118.514 4.91819C116.937 4.91819 115.713 5.48121 114.838 6.60015C113.963 7.72263 113.529 9.29481 113.529 11.3167C113.529 13.3386 113.927 14.8258 114.721 15.9093C115.515 16.9928 116.658 17.5346 118.154 17.5346L118.151 17.5382ZM117.258 8.51934C117.735 7.84302 118.366 7.50309 119.149 7.50309C119.626 7.50309 120.092 7.60932 120.55 7.82886C121.009 8.04486 121.39 8.29272 121.7 8.57246V13.7918C121.348 14.1176 120.917 14.3902 120.416 14.6169C119.912 14.8399 119.418 14.9497 118.938 14.9497C118.123 14.9497 117.519 14.6239 117.131 13.9724C116.743 13.3209 116.546 12.4215 116.546 11.2777C116.546 10.134 116.785 9.19921 117.262 8.52288L117.258 8.51934Z" fill="white"/>
<path d="M138.104 15.4847L135.927 13.9231C135.602 14.3339 135.225 14.61 134.787 14.7517C134.35 14.8933 133.849 14.9712 133.277 14.9712C132.286 14.9712 131.562 14.7375 131.1 14.2737C130.638 13.8098 130.38 13.052 130.327 11.9897H138.224V10.545C138.224 8.71436 137.779 7.31568 136.894 6.35608C136.004 5.39649 134.713 4.91846 133.023 4.91846C129.216 4.91846 127.314 7.05365 127.314 11.317C127.314 13.4026 127.797 14.9571 128.761 15.9875C129.72 17.0214 131.181 17.5349 133.139 17.5349C134.452 17.5349 135.489 17.3649 136.248 17.0214C137.007 16.6815 137.624 16.1681 138.1 15.4776L138.104 15.4847ZM130.881 8.31069C131.079 7.95659 131.347 7.69456 131.679 7.51398C132.01 7.33339 132.437 7.2484 132.959 7.2484C134.537 7.2484 135.327 8.15489 135.327 9.96431H130.412C130.525 9.21363 130.684 8.66479 130.881 8.31069Z" fill="white"/>
<path d="M143.785 0.258301H140.863V17.1876H143.785V0.258301Z" fill="white"/>
<path d="M150.005 0.258301H147.084V17.1876H150.005V0.258301Z" fill="white"/>
<path d="M161.772 5.8921C160.95 5.24764 159.616 4.92188 157.767 4.92188C156.557 4.92188 155.527 5.10246 154.673 5.4601C153.823 5.81774 153.195 6.33826 152.792 7.01104L155.072 8.47699C155.291 8.08395 155.629 7.77942 156.084 7.57051C156.543 7.35805 157.086 7.25182 157.722 7.25182C158.494 7.25182 159.076 7.37221 159.479 7.62008C159.881 7.86795 160.079 8.32119 160.079 8.99043V9.52511L157.577 9.7659C156.307 9.89337 155.336 10.1165 154.659 10.4316C153.981 10.7467 153.47 11.1823 153.128 11.7311C152.782 12.2871 152.612 12.9846 152.612 13.8345C152.612 14.9215 152.948 15.8068 153.622 16.5008C154.292 17.1948 155.287 17.5383 156.6 17.5383C157.912 17.5383 159.161 17.0071 160.318 15.9484V17.1877H163.004V9.07895C163.004 7.60238 162.594 6.54009 161.776 5.88856L161.772 5.8921ZM160.079 13.923C159.588 14.3337 159.087 14.6489 158.575 14.8755C158.064 15.0986 157.633 15.2083 157.281 15.2083C156.783 15.2083 156.381 15.1092 156.081 14.9074C155.781 14.7055 155.626 14.3337 155.626 13.7884C155.626 13.1688 155.859 12.6978 156.321 12.3897C156.787 12.0781 157.542 11.8763 158.593 11.7842L160.075 11.6497V13.923H160.079Z" fill="white"/>
<path d="M46.7085 35.8735C46.1899 36.2276 45.4665 36.4082 44.5386 36.4082C43.159 36.4082 42.1499 35.9655 41.5183 35.0803C40.8867 34.1915 40.5727 32.8495 40.5727 31.0542C40.5727 29.128 40.9079 27.7576 41.5818 26.9326C42.2522 26.1111 43.2331 25.7003 44.5174 25.7003C45.0537 25.7003 45.5124 25.7605 45.897 25.8809C46.2816 26.0013 46.6274 26.1819 46.9308 26.4262C47.2307 26.6705 47.5659 27.0636 47.9258 27.6089L50.4063 25.6755C49.9017 24.8328 49.1643 24.1529 48.1975 23.6359C47.2307 23.1154 45.9817 22.8569 44.4468 22.8569C42.1287 22.8569 40.3504 23.5262 39.1225 24.8576C37.8911 26.1925 37.2772 28.2604 37.2772 31.0542C37.2772 36.5179 39.7047 39.2515 44.5598 39.2515C45.9887 39.2515 47.1919 39.0143 48.1693 38.5398C49.1466 38.0653 49.9723 37.3253 50.6427 36.3196L48.1163 34.4536C47.6929 35.0449 47.2237 35.5194 46.7085 35.877V35.8735Z" fill="white"/>
<path d="M61.4042 27.6231C60.5821 26.9786 59.2483 26.6528 57.3995 26.6528C56.1893 26.6528 55.159 26.8334 54.3051 27.1911C53.4548 27.5487 52.8267 28.0692 52.4245 28.742L54.7038 30.2079C54.9226 29.8149 55.2613 29.5104 55.7165 29.3015C56.1751 29.089 56.7185 28.9828 57.3536 28.9828C58.1263 28.9828 58.7085 29.1032 59.1107 29.351C59.513 29.5989 59.7106 30.0521 59.7106 30.7214V31.2561L57.209 31.4969C55.9387 31.6243 54.9684 31.8474 54.291 32.1626C53.6135 32.4777 53.1019 32.9132 52.7597 33.4621C52.4139 34.018 52.2445 34.7156 52.2445 35.5654C52.2445 36.6525 52.5797 37.5377 53.2536 38.2318C53.924 38.9258 54.919 39.2692 56.2316 39.2692C57.5441 39.2692 58.7932 38.7381 59.9505 37.6794V38.9187H62.6356V30.8099C62.6356 29.3333 62.2263 28.271 61.4077 27.6195L61.4042 27.6231ZM59.707 35.6539C59.2166 36.0647 58.7156 36.3798 58.204 36.6065C57.6923 36.8295 57.2619 36.9393 56.909 36.9393C56.4115 36.9393 56.0093 36.8402 55.7094 36.6383C55.4095 36.4365 55.2542 36.0647 55.2542 35.5194C55.2542 34.8997 55.4871 34.4288 55.9493 34.1207C56.4151 33.8091 57.1701 33.6073 58.2216 33.5152L59.7035 33.3806V35.6539H59.707Z" fill="white"/>
<path d="M65.8252 23.6711V26.9926H64.3186V29.3225H65.8252V35.3138C65.8252 36.7089 66.1251 37.7181 66.7285 38.3378C67.3318 38.9574 68.3198 39.269 69.6994 39.269C70.5673 39.269 71.393 39.1522 72.1763 38.9149L71.6647 36.5142C71.1354 36.7373 70.6026 36.8435 70.0699 36.8435C69.6464 36.8435 69.3218 36.7089 69.089 36.4434C68.8561 36.1778 68.7397 35.675 68.7397 34.9314V29.3154H71.5024V26.9855H68.7397V23.6641H65.8182L65.8252 23.6711Z" fill="white"/>
<path d="M80.041 36.5181C79.5118 36.7412 78.979 36.8474 78.4462 36.8474C78.0228 36.8474 77.6982 36.7128 77.4653 36.4473C77.2324 36.1817 77.116 35.6789 77.116 34.9353V29.3193H79.8787V26.9894H77.116V23.668H74.1945V26.9894H72.6879V29.3193H74.1945V35.3106C74.1945 36.7058 74.4944 37.7149 75.0978 38.3346C75.7011 38.9543 76.6891 39.2659 78.0687 39.2659C78.9366 39.2659 79.7623 39.149 80.5456 38.9118L80.034 36.511L80.041 36.5181Z" fill="white"/>
<path d="M92.3092 37.2156L90.1321 35.6541C89.8075 36.0648 89.43 36.341 88.9925 36.4826C88.555 36.6243 88.0539 36.7022 87.4823 36.7022C86.4909 36.7022 85.7676 36.4685 85.3053 36.0046C84.8431 35.5407 84.5856 34.783 84.5326 33.7207H92.4291V32.276C92.4291 30.4453 91.9845 29.0466 91.0989 28.087C90.2098 27.1274 88.9184 26.6494 87.2283 26.6494C83.4212 26.6494 81.5194 28.7846 81.5194 33.0479C81.5194 35.1335 82.0028 36.688 82.966 37.7184C83.9258 38.7524 85.3865 39.2658 87.3447 39.2658C88.6573 39.2658 89.6946 39.0959 90.4532 38.7524C91.2118 38.4089 91.8293 37.899 92.3056 37.2085L92.3092 37.2156ZM85.0866 30.0416C85.2842 29.6875 85.5523 29.4255 85.884 29.2449C86.2157 29.0679 86.6426 28.9794 87.1648 28.9794C88.742 28.9794 89.5323 29.8858 89.5323 31.6953H84.6173C84.7302 30.9446 84.889 30.3957 85.0866 30.0416Z" fill="white"/>
<path d="M99.0977 39.2691C99.8669 39.2691 100.551 39.131 101.158 38.8619C101.762 38.5857 102.337 38.221 102.88 37.7571V38.9186H105.565V21.9893H102.644V27.8779C102.259 27.5238 101.769 27.2299 101.183 26.9962C100.594 26.766 100.019 26.6492 99.4612 26.6492C97.884 26.6492 96.6596 27.2122 95.7846 28.3311C94.9096 29.4536 94.4756 31.0258 94.4756 33.0477C94.4756 35.0695 94.8743 36.5567 95.6682 37.6403C96.4621 38.7238 97.6052 39.2656 99.1013 39.2656L99.0977 39.2691ZM98.2015 30.2503C98.6779 29.574 99.3094 29.234 100.093 29.234C100.569 29.234 101.035 29.3403 101.493 29.5598C101.952 29.7758 102.333 30.0237 102.644 30.3034V35.5228C102.291 35.8485 101.86 36.1212 101.359 36.3478C100.855 36.5709 100.361 36.6807 99.881 36.6807C99.066 36.6807 98.4626 36.3549 98.0745 35.7034C97.6864 35.0518 97.4888 34.1524 97.4888 33.0087C97.4888 31.865 97.7287 30.9302 98.2051 30.2538L98.2015 30.2503Z" fill="white"/>
<path d="M113.395 27.3434C112.82 27.6975 112.283 28.1507 111.786 28.696V26.9893H108.864V38.9152H111.786V31.1605C112.297 30.6613 112.798 30.2789 113.289 30.0168C113.776 29.7548 114.291 29.6238 114.834 29.6238C115.335 29.6238 115.734 29.7017 116.037 29.8504L116.613 27.0424C116.359 26.8831 115.925 26.8052 115.321 26.8052C114.612 26.8052 113.97 26.9822 113.395 27.3399V27.3434Z" fill="white"/>
<path d="M126.619 27.6231C125.797 26.9786 124.463 26.6528 122.614 26.6528C121.404 26.6528 120.374 26.8334 119.52 27.1911C118.67 27.5487 118.042 28.0692 117.639 28.742L119.919 30.2079C120.137 29.8149 120.476 29.5104 120.931 29.3015C121.39 29.089 121.933 28.9828 122.568 28.9828C123.341 28.9828 123.923 29.1032 124.326 29.351C124.728 29.5989 124.925 30.0521 124.925 30.7214V31.2561L122.424 31.4969C121.154 31.6243 120.183 31.8474 119.506 32.1626C118.828 32.4777 118.317 32.9132 117.974 33.4621C117.629 34.018 117.459 34.7156 117.459 35.5654C117.459 36.6525 117.795 37.5377 118.468 38.2318C119.139 38.9258 120.134 39.2692 121.446 39.2692C122.759 39.2692 124.008 38.7381 125.165 37.6794V38.9187H127.85V30.8099C127.85 29.3333 127.441 28.271 126.623 27.6195L126.619 27.6231ZM124.925 35.6539C124.435 36.0647 123.934 36.3798 123.422 36.6065C122.911 36.8295 122.48 36.9393 122.127 36.9393C121.63 36.9393 121.228 36.8402 120.928 36.6383C120.628 36.4365 120.473 36.0647 120.473 35.5194C120.473 34.8997 120.705 34.4288 121.168 34.1207C121.633 33.8091 122.388 33.6073 123.44 33.5152L124.922 33.3806V35.6539H124.925Z" fill="white"/>
<path d="M133.976 21.9893H131.054V38.9186H133.976V21.9893Z" fill="white"/>
<path d="M142.38 26.6526C138.573 26.6526 136.671 28.7878 136.671 33.0511C136.671 35.1367 137.155 36.6912 138.118 37.7216C139.078 38.7556 140.538 39.269 142.497 39.269C143.809 39.269 144.847 39.099 145.605 38.7556C146.364 38.4121 146.981 37.9022 147.458 37.2117L145.281 35.6502C144.956 36.0609 144.578 36.3371 144.141 36.4787C143.707 36.6239 143.202 36.6983 142.631 36.6983C141.639 36.6983 140.916 36.4646 140.454 36.0007C139.995 35.5404 139.734 34.7791 139.681 33.7168H147.578V32.2721C147.578 30.4414 147.133 29.0427 146.247 28.0831C145.358 27.1235 144.067 26.6455 142.377 26.6455L142.38 26.6526ZM139.766 31.6984C139.879 30.9478 140.037 30.3989 140.235 30.0448C140.433 29.6907 140.701 29.4287 141.032 29.2481C141.364 29.0711 141.791 28.9825 142.313 28.9825C143.89 28.9825 144.681 29.889 144.681 31.6984H139.766Z" fill="white"/>
<path d="M45.3995 49.6089C45.0149 49.2548 44.5245 48.9609 43.9388 48.7272C43.3495 48.4971 42.7744 48.3802 42.2169 48.3802C40.6397 48.3802 39.4154 48.9432 38.5404 50.0622C37.6653 51.1847 37.2313 52.7568 37.2313 54.7787C37.2313 56.8006 37.63 58.2878 38.4239 59.3714C39.2178 60.4549 40.361 60.9966 41.857 60.9966C42.6262 60.9966 43.3107 60.8586 43.9176 60.5894C44.5209 60.3132 45.0961 59.9485 45.6394 59.4847V60.6461H48.3245V43.7168H45.403V49.6054L45.3995 49.6089ZM45.3995 57.2503C45.0467 57.5761 44.6162 57.8487 44.1152 58.0754C43.6106 58.2984 43.1167 58.4082 42.6368 58.4082C41.8217 58.4082 41.2184 58.0824 40.8303 57.4309C40.4422 56.7794 40.2446 55.88 40.2446 54.7362C40.2446 53.5925 40.4845 52.6577 40.9608 51.9814C41.4372 51.3051 42.0687 50.9651 42.852 50.9651C43.3284 50.9651 43.7941 51.0714 44.2528 51.2909C44.7115 51.5069 45.0925 51.7548 45.403 52.0345V57.2539L45.3995 57.2503Z" fill="white"/>
<path d="M53.0561 43.9824C52.4739 43.9824 52.0646 44.0993 51.8211 44.3294C51.5777 44.5596 51.4577 44.942 51.4577 45.4732C51.4577 45.9512 51.5706 46.3194 51.7929 46.5779C52.0152 46.8329 52.4351 46.9604 53.0561 46.9604C53.6171 46.9604 54.0299 46.8506 54.3016 46.6311C54.5733 46.408 54.7073 46.022 54.7073 45.4696C54.7073 44.9172 54.5803 44.5384 54.3228 44.3153C54.0652 44.0922 53.6418 43.9824 53.0525 43.9824H53.0561Z" fill="white"/>
<path d="M54.538 48.7236H51.6165V60.6496H54.538V48.7236Z" fill="white"/>
<path d="M72.9278 55.5221L67.6141 44.917H63.4683V60.6494H66.5944V49.4069L72.3033 60.6494H76.0681V44.917H72.9278V55.5221Z" fill="white"/>
<path d="M84.5009 48.3838C82.525 48.3838 81.0784 48.9362 80.1645 50.0374C79.2507 51.1386 78.792 52.7002 78.792 54.715C78.792 58.9075 80.6938 61.0037 84.5009 61.0037C86.4662 61.0037 87.9057 60.4514 88.8196 59.3501C89.7299 58.2453 90.1886 56.705 90.1886 54.715C90.1886 52.725 89.7299 51.1386 88.8196 50.0374C87.9057 48.9362 86.4662 48.3838 84.5009 48.3838ZM86.5438 57.5407C86.131 58.132 85.45 58.433 84.5044 58.433C83.5588 58.433 82.8567 58.132 82.4403 57.5265C82.0204 56.9246 81.8087 55.9862 81.8087 54.7115C81.8087 53.4367 82.0204 52.4842 82.4438 51.8645C82.8672 51.2484 83.5553 50.9368 84.5044 50.9368C85.4535 50.9368 86.1486 51.2378 86.5579 51.8398C86.9637 52.4417 87.1719 53.4013 87.1719 54.7115C87.1719 56.0216 86.9637 56.9423 86.5473 57.5372L86.5438 57.5407Z" fill="white"/>
<path d="M97.3406 58.5818C96.9172 58.5818 96.5926 58.4472 96.3597 58.1816C96.1268 57.9161 96.0104 57.4133 96.0104 56.6697V51.0537H98.7731V48.7238H96.0104V45.4023H93.0889V48.7238H91.5823V51.0537H93.0889V57.045C93.0889 58.4401 93.3888 59.4493 93.9922 60.069C94.5955 60.6886 95.5835 61.0002 96.9631 61.0002C97.831 61.0002 98.6567 60.8834 99.44 60.6461L98.9284 58.2454C98.3991 58.4685 97.8663 58.5747 97.3335 58.5747L97.3406 58.5818Z" fill="white"/>
<path d="M106.13 48.3838C104.154 48.3838 102.707 48.9362 101.793 50.0374C100.88 51.1386 100.421 52.7002 100.421 54.715C100.421 58.9075 102.323 61.0037 106.13 61.0037C108.095 61.0037 109.535 60.4514 110.448 59.3501C111.359 58.2453 111.818 56.705 111.818 54.715C111.818 52.725 111.359 51.1386 110.448 50.0374C109.535 48.9362 108.095 48.3838 106.13 48.3838ZM108.169 57.5407C107.756 58.132 107.075 58.433 106.13 58.433C105.184 58.433 104.482 58.132 104.066 57.5265C103.646 56.9246 103.434 55.9862 103.434 54.7115C103.434 53.4367 103.646 52.4842 104.069 51.8645C104.493 51.2484 105.181 50.9368 106.13 50.9368C107.079 50.9368 107.774 51.2378 108.183 51.8398C108.589 52.4417 108.797 53.4013 108.797 54.7115C108.797 56.0216 108.589 56.9423 108.173 57.5372L108.169 57.5407Z" fill="white"/>
</g>
<defs>
<clipPath id="clip0_160_41">
<rect width="163" height="61" fill="white"/>
</clipPath>
</defs>
</svg>
