<svg width="47" height="47" viewBox="0 0 47 47" fill="none" xmlns="http://www.w3.org/2000/svg">
<path d="M24.3901 1.02H25.4117C22.0722 4.00427 19.9257 8.01961 19.3452 12.3681C18.7647 16.7165 19.787 21.1231 22.2344 24.8218C24.6818 28.5206 28.3995 31.2776 32.7414 32.6137C37.0832 33.9497 41.7746 33.7804 46 32.135C44.3746 35.8962 41.718 39.1626 38.3137 41.5856C34.9093 44.0087 30.8849 45.4976 26.6697 45.8935C22.4544 46.2893 18.2065 45.5774 14.379 43.8335C10.5516 42.0896 7.28811 39.3792 4.93677 35.9915C2.58543 32.6037 1.23442 28.6657 1.02785 24.5974C0.821277 20.5291 1.76689 16.4832 3.76382 12.8913C5.76075 9.29933 8.73409 6.29606 12.3667 4.20183C15.9993 2.10761 20.1548 1.00098 24.3901 1V1.02Z" stroke="black" stroke-width="2" stroke-linecap="round" stroke-linejoin="round"/>
</svg>
