<svg width="71" height="71" viewBox="0 0 71 71" fill="none" xmlns="http://www.w3.org/2000/svg">
<path d="M1.5 35.25C1.5 39.6821 2.37297 44.0708 4.06907 48.1656C5.76516 52.2603 8.25117 55.9809 11.3851 59.1149C14.5191 62.2488 18.2397 64.7348 22.3344 66.4309C26.4292 68.127 30.8179 69 35.25 69C39.6821 69 44.0708 68.127 48.1656 66.4309C52.2603 64.7348 55.9809 62.2488 59.1149 59.1149C62.2488 55.9809 64.7348 52.2603 66.4309 48.1656C68.127 44.0708 69 39.6821 69 35.25C69 26.2989 65.4442 17.7145 59.1149 11.3851C52.7855 5.05579 44.2011 1.5 35.25 1.5C26.2989 1.5 17.7145 5.05579 11.3851 11.3851C5.05579 17.7145 1.5 26.2989 1.5 35.25Z" stroke="black" stroke-width="3" stroke-linecap="round" stroke-linejoin="round"/>
<path d="M35.25 16.5V35.25L46.5 46.5" stroke="black" stroke-width="3" stroke-linecap="round" stroke-linejoin="round"/>
</svg>
