<svg width="85" height="85" viewBox="0 0 85 85" fill="none" xmlns="http://www.w3.org/2000/svg">
<path d="M2 42.125C2 47.3943 3.03786 52.612 5.05433 57.4802C7.0708 62.3484 10.0264 66.7717 13.7523 70.4977C17.4783 74.2236 21.9016 77.1792 26.7698 79.1957C31.638 81.2121 36.8557 82.25 42.125 82.25C47.3943 82.25 52.612 81.2121 57.4802 79.1957C62.3484 77.1792 66.7717 74.2236 70.4977 70.4977C74.2236 66.7717 77.1792 62.3484 79.1957 57.4802C81.2121 52.612 82.25 47.3943 82.25 42.125C82.25 31.4832 78.0226 21.2772 70.4977 13.7523C62.9728 6.22744 52.7668 2 42.125 2C31.4832 2 21.2772 6.22744 13.7523 13.7523C6.22744 21.2772 2 31.4832 2 42.125Z" stroke="#DE7533" stroke-width="4" stroke-linecap="round" stroke-linejoin="round"/>
<path d="M42.125 19.8333V42.125L55.5 55.5" stroke="#DE7533" stroke-width="4" stroke-linecap="round" stroke-linejoin="round"/>
</svg>
