<svg width="75" height="75" viewBox="0 0 75 75" fill="none" xmlns="http://www.w3.org/2000/svg">
<path d="M37.5 75C32.375 75 27.5312 74.015 22.9688 72.045C18.4062 70.075 14.4225 67.3875 11.0175 63.9825C7.6125 60.5775 4.925 56.5938 2.955 52.0312C0.985 47.4688 0 42.625 0 37.5C0 32.3125 1.01625 27.4375 3.04875 22.875C5.08125 18.3125 7.83125 14.3438 11.2987 10.9688C14.7662 7.59375 18.8125 4.9225 23.4375 2.955C28.0625 0.9875 33 0.0025 38.25 0C43.25 0 47.9688 0.86 52.4062 2.58C56.8438 4.3 60.735 6.675 64.08 9.705C67.425 12.735 70.0812 16.3288 72.0487 20.4862C74.0162 24.6437 75 29.1275 75 33.9375C75 41.125 72.8125 46.6413 68.4375 50.4863C64.0625 54.3313 58.75 56.2525 52.5 56.25H45.5625C45 56.25 44.61 56.4062 44.3925 56.7188C44.175 57.0312 44.065 57.375 44.0625 57.75C44.0625 58.5 44.5312 59.5788 45.4688 60.9863C46.4062 62.3938 46.875 64.0025 46.875 65.8125C46.875 68.9375 46.0162 71.25 44.2987 72.75C42.5812 74.25 40.315 75 37.5 75ZM16.875 41.25C18.5 41.25 19.8438 40.7188 20.9062 39.6562C21.9688 38.5938 22.5 37.25 22.5 35.625C22.5 34 21.9688 32.6562 20.9062 31.5938C19.8438 30.5312 18.5 30 16.875 30C15.25 30 13.9063 30.5312 12.8438 31.5938C11.7813 32.6562 11.25 34 11.25 35.625C11.25 37.25 11.7813 38.5938 12.8438 39.6562C13.9063 40.7188 15.25 41.25 16.875 41.25ZM28.125 26.25C29.75 26.25 31.0938 25.7188 32.1562 24.6562C33.2188 23.5938 33.75 22.25 33.75 20.625C33.75 19 33.2188 17.6562 32.1562 16.5938C31.0938 15.5312 29.75 15 28.125 15C26.5 15 25.1562 15.5312 24.0938 16.5938C23.0312 17.6562 22.5 19 22.5 20.625C22.5 22.25 23.0312 23.5938 24.0938 24.6562C25.1562 25.7188 26.5 26.25 28.125 26.25ZM46.875 26.25C48.5 26.25 49.8438 25.7188 50.9062 24.6562C51.9688 23.5938 52.5 22.25 52.5 20.625C52.5 19 51.9688 17.6562 50.9062 16.5938C49.8438 15.5312 48.5 15 46.875 15C45.25 15 43.9062 15.5312 42.8438 16.5938C41.7812 17.6562 41.25 19 41.25 20.625C41.25 22.25 41.7812 23.5938 42.8438 24.6562C43.9062 25.7188 45.25 26.25 46.875 26.25ZM58.125 41.25C59.75 41.25 61.0938 40.7188 62.1563 39.6562C63.2188 38.5938 63.75 37.25 63.75 35.625C63.75 34 63.2188 32.6562 62.1563 31.5938C61.0938 30.5312 59.75 30 58.125 30C56.5 30 55.1562 30.5312 54.0937 31.5938C53.0312 32.6562 52.5 34 52.5 35.625C52.5 37.25 53.0312 38.5938 54.0937 39.6562C55.1562 40.7188 56.5 41.25 58.125 41.25ZM37.5 67.5C38.0625 67.5 38.5162 67.3438 38.8612 67.0312C39.2062 66.7188 39.3775 66.3125 39.375 65.8125C39.375 64.9375 38.9062 63.9062 37.9688 62.7188C37.0312 61.5312 36.5625 59.75 36.5625 57.375C36.5625 54.75 37.4688 52.6562 39.2812 51.0938C41.0938 49.5312 43.3125 48.75 45.9375 48.75H52.5C56.625 48.75 60.1563 47.5475 63.0938 45.1425C66.0313 42.7375 67.5 39.0025 67.5 33.9375C67.5 26.375 64.61 20.0775 58.83 15.045C53.05 10.0125 46.19 7.4975 38.25 7.5C29.75 7.5 22.5 10.4062 16.5 16.2188C10.5 22.0312 7.5 29.125 7.5 37.5C7.5 45.8125 10.4225 52.8913 16.2675 58.7363C22.1125 64.5813 29.19 67.5025 37.5 67.5Z" fill="black"/>
</svg>
