<svg width="78" height="62" viewBox="0 0 78 62" fill="none" xmlns="http://www.w3.org/2000/svg">
<path d="M24.1071 0C22.2077 -4.00285e-08 20.3268 0.37413 18.5719 1.10103C16.817 1.82793 15.2225 2.89336 13.8793 4.23649C12.5362 5.57962 11.4708 7.17416 10.7439 8.92904C10.017 10.6839 9.64286 12.5648 9.64286 14.4643C9.64286 16.3638 10.017 18.2446 10.7439 19.9995C11.4708 21.7544 12.5362 23.3489 13.8793 24.6921C15.2225 26.0352 16.817 27.1006 18.5719 27.8275C20.3268 28.5544 22.2077 28.9286 24.1071 28.9286C27.9433 28.9286 31.6224 27.4047 34.3349 24.6921C37.0475 21.9795 38.5714 18.3005 38.5714 14.4643C38.5714 10.6281 37.0475 6.94907 34.3349 4.23649C31.6224 1.52391 27.9433 8.08412e-08 24.1071 0ZM14.4643 14.4643C14.4643 13.198 14.7137 11.944 15.1983 10.7741C15.6829 9.6042 16.3932 8.54118 17.2886 7.64576C18.184 6.75033 19.2471 6.04005 20.417 5.55545C21.5869 5.07085 22.8408 4.82143 24.1071 4.82143C25.3735 4.82143 26.6274 5.07085 27.7973 5.55545C28.9672 6.04005 30.0303 6.75033 30.9257 7.64576C31.8211 8.54118 32.5314 9.6042 33.016 10.7741C33.5006 11.944 33.75 13.198 33.75 14.4643C33.75 17.0217 32.7341 19.4744 30.9257 21.2828C29.1173 23.0912 26.6646 24.1071 24.1071 24.1071C21.5497 24.1071 19.097 23.0912 17.2886 21.2828C15.4802 19.4744 14.4643 17.0217 14.4643 14.4643ZM57.8571 6.42857C54.8735 6.42857 52.012 7.61384 49.9022 9.72362C47.7924 11.8334 46.6071 14.6949 46.6071 17.6786C46.6071 20.6623 47.7924 23.5237 49.9022 25.6335C52.012 27.7433 54.8735 28.9286 57.8571 28.9286C60.8408 28.9286 63.7023 27.7433 65.8121 25.6335C67.9219 23.5237 69.1071 20.6623 69.1071 17.6786C69.1071 14.6949 67.9219 11.8334 65.8121 9.72362C63.7023 7.61384 60.8408 6.42857 57.8571 6.42857ZM51.4286 17.6786C51.4286 15.9736 52.1059 14.3385 53.3115 13.1329C54.517 11.9273 56.1522 11.25 57.8571 11.25C59.5621 11.25 61.1972 11.9273 62.4028 13.1329C63.6084 14.3385 64.2857 15.9736 64.2857 17.6786C64.2857 19.3835 63.6084 21.0187 62.4028 22.2243C61.1972 23.4298 59.5621 24.1071 57.8571 24.1071C56.1522 24.1071 54.517 23.4298 53.3115 22.2243C52.1059 21.0187 51.4286 19.3835 51.4286 17.6786ZM0 42.5893C0 40.6712 0.761956 38.8317 2.11825 37.4754C3.47454 36.1191 5.31406 35.3571 7.23214 35.3571H40.9821C42.9002 35.3571 44.7398 36.1191 46.096 37.4754C47.4523 38.8317 48.2143 40.6712 48.2143 42.5893V44.2961C48.2118 44.5562 48.1936 44.816 48.1596 45.0739C48.0873 45.737 47.9691 46.3943 47.8061 47.0411C47.2736 49.1514 46.3263 51.1346 45.0193 52.875C41.76 57.2239 35.5436 61.0714 24.1071 61.0714C12.6707 61.0714 6.45429 57.2239 3.195 52.875C1.88914 51.1344 0.942887 49.1512 0.411429 47.0411C0.201071 46.2009 0.0666025 45.3435 0.00964293 44.4793L0 44.2961V42.5893ZM4.82143 44.1804V44.2382L4.85036 44.5596C4.8825 44.8618 4.94679 45.315 5.08821 45.8711C5.46297 47.3578 6.12945 48.7552 7.04893 49.9821C9.21536 52.8654 13.8471 56.25 24.1071 56.25C34.3671 56.25 38.9989 52.8654 41.1621 49.9821C42.2871 48.4843 42.8464 46.9864 43.1229 45.8711C43.2584 45.3354 43.3477 44.7891 43.3896 44.2382L43.3929 44.1804V42.5893C43.3929 41.9499 43.1389 41.3368 42.6868 40.8847C42.2347 40.4326 41.6215 40.1786 40.9821 40.1786H7.23214C6.59278 40.1786 5.97961 40.4326 5.52751 40.8847C5.07541 41.3368 4.82143 41.9499 4.82143 42.5893V44.1804ZM48.5357 53.4214C51.0204 54.1832 54.0868 54.6429 57.8507 54.6429C66.7543 54.6429 71.73 52.0843 74.4332 48.9986C75.5124 47.7763 76.313 46.3341 76.7796 44.7718C76.9621 44.1404 77.0795 43.492 77.13 42.8368L77.1364 42.6857V42.5893C77.1364 40.6712 76.3745 38.8317 75.0182 37.4754C73.6619 36.1191 71.8224 35.3571 69.9043 35.3571H48.5164C49.7829 36.6782 50.7086 38.3336 51.1457 40.1786H69.9075C70.5413 40.1785 71.1497 40.4281 71.6009 40.8733C72.0521 41.3184 72.3098 41.9234 72.3182 42.5571L72.3021 42.705C72.27 42.9474 72.2195 43.187 72.1511 43.4218C71.8798 44.3103 71.4193 45.1294 70.8011 45.8229C69.2872 47.5586 65.8286 49.8214 57.8507 49.8214C54.8261 49.8214 52.4507 49.4968 50.5832 48.9954C50.0907 50.5514 49.4028 52.0387 48.5357 53.4214Z" fill="black"/>
</svg>
