<svg width="71" height="78" viewBox="0 0 71 78" fill="none" xmlns="http://www.w3.org/2000/svg">
<path d="M46.5 76.5H1.5V12.75C1.5 3.4425 3.4425 1.5 12.75 1.5H35.25C44.5575 1.5 46.5 3.4425 46.5 12.75V76.5ZM46.5 76.5V24H57.75C67.0575 24 69 25.9425 69 35.25V76.5H46.5Z" stroke="black" stroke-width="3" stroke-linejoin="round"/>
<path d="M20.25 16.5H27.75M20.25 27.75H27.75M20.25 39H27.75" stroke="black" stroke-width="3" stroke-linecap="round" stroke-linejoin="round"/>
<path d="M33.375 76.5V61.5C33.375 57.9637 33.375 56.1975 32.2762 55.0987C31.1775 54 29.4113 54 25.875 54H22.125C18.5887 54 16.8225 54 15.7238 55.0987C14.625 56.1975 14.625 57.9637 14.625 61.5V76.5" stroke="black" stroke-width="3" stroke-linejoin="round"/>
</svg>
