<svg width="53" height="64" viewBox="0 0 53 64" fill="none" xmlns="http://www.w3.org/2000/svg">
<path d="M0 45.435V11.25C0 8.8025 0.703751 6.835 2.11125 5.3475C3.51875 3.86 5.42375 2.72 7.82625 1.9275C10.2287 1.135 13.0225 0.6175 16.2075 0.375C19.3925 0.1325 22.74 0.0075 26.25 0C29.895 0 33.305 0.12375 36.48 0.37125C39.655 0.61875 42.4338 1.13875 44.8163 1.93125C47.1988 2.72375 49.075 3.8625 50.445 5.3475C51.815 6.8325 52.5 8.8 52.5 11.25V45.435C52.5 48.4475 51.45 51.0038 49.35 53.1038C47.2525 55.2013 44.6975 56.25 41.685 56.25L47.31 61.875V63.75H44.1337L36.6338 56.25H15.8662L8.36625 63.75H5.19375V61.875L10.8188 56.25C7.80375 56.25 5.2475 55.2 3.15 53.1C1.05 51.005 0 48.45 0 45.435ZM26.25 3.75C18.9025 3.75 13.5538 4.2375 10.2038 5.2125C6.85375 6.185 4.8325 7.62125 4.14 9.52125H48.4463C47.7963 7.59125 45.7925 6.1475 42.435 5.19C39.0775 4.23 33.6825 3.75 26.25 3.75ZM3.75 30H24.375V13.2713H3.75V30ZM41.685 33.75H3.75H48.75H41.685ZM28.125 30H48.75V13.2713H28.125V30ZM13.125 47.31C14.3175 47.31 15.3125 46.91 16.11 46.11C16.9075 45.31 17.3075 44.315 17.31 43.125C17.3125 41.935 16.9125 40.94 16.11 40.14C15.3075 39.34 14.3125 38.94 13.125 38.94C11.9375 38.94 10.9425 39.34 10.14 40.14C9.3375 40.94 8.9375 41.935 8.94 43.125C8.9425 44.315 9.3425 45.31 10.14 46.11C10.9375 46.91 11.9325 47.31 13.125 47.31ZM39.375 47.31C40.5675 47.31 41.5625 46.91 42.36 46.11C43.1575 45.31 43.5575 44.315 43.56 43.125C43.5625 41.935 43.1625 40.94 42.36 40.14C41.5575 39.34 40.5625 38.94 39.375 38.94C38.1875 38.94 37.1925 39.34 36.39 40.14C35.5875 40.94 35.1875 41.935 35.19 43.125C35.1925 44.315 35.5925 45.31 36.39 46.11C37.1875 46.91 38.1825 47.31 39.375 47.31ZM10.8188 52.5H41.6812C43.6437 52.5 45.3125 51.8125 46.6875 50.4375C48.0625 49.0625 48.75 47.3938 48.75 45.4313V33.75H3.75V45.435C3.75 47.395 4.4375 49.0625 5.8125 50.4375C7.1875 51.8125 8.85625 52.5 10.8188 52.5ZM26.25 9.52125H48.4463H4.14H26.25Z" fill="black"/>
</svg>
